<svg width="392" height="362" viewBox="0 0 392 362" fill="none" xmlns="http://www.w3.org/2000/svg">
    <path d="M296.029 56.1796C300.281 56.1796 303.727 52.5777 303.727 48.1345C303.727 43.6913 300.281 40.0894 296.029 40.0894C291.778 40.0894 288.332 43.6913 288.332 48.1345C288.332 52.5777 291.778 56.1796 296.029 56.1796Z" fill="#3A193F"/>
    <path d="M271.57 56.3593C273.099 54.7242 280.003 50.2062 283.846 48.8808C287.105 47.7536 294.187 47.125 297.049 53.8355C299.911 60.546 297.144 66.3522 301.41 70.3593C305.677 74.3664 328.047 77.4166 318.518 103.156C314.151 114.923 268.213 100.552 266.628 87.6511C265.597 79.2622 276.998 75.7785 275.603 73.1896C273.819 69.8731 265.606 62.7415 271.57 56.3593Z" fill="#3A193F"/>
    <path d="M265.579 87.8306C263.774 78.6025 275.06 76.1407 274.678 72.9945C274.254 69.5231 266.171 62.3729 272.234 56.4893" stroke="#3A193F" stroke-width="3" stroke-linecap="round" stroke-linejoin="round"/>
    <path d="M290.583 70.6724C290.583 70.6724 289.763 82.7029 297.543 86.3477C297.543 86.3477 288.278 94.1729 278.21 87.6421C278.21 87.6421 284.491 86.3539 281.813 71.8491L290.583 70.6724Z" fill="#B57E6F"/>
    <path d="M285.496 81.6776C290.081 81.6776 293.798 78.2462 293.798 74.0134C293.798 69.7805 290.081 66.3491 285.496 66.3491C280.911 66.3491 277.194 69.7805 277.194 74.0134C277.194 78.2462 280.911 81.6776 285.496 81.6776Z" fill="#3A193F"/>
    <path d="M292.026 69.3656C292.222 70.9572 289.093 77.3333 281.952 78.2065C279.979 78.4481 276.074 74.441 275.52 70.3906C275.075 67.1267 274.527 63.4416 274.468 62.2866C274.376 60.5339 275.398 56.3627 279.775 55.2881C281.327 55.0032 284.364 55.0683 285.638 59.4005C287.188 64.6648 290.658 64.832 292.314 64.5379C292.634 64.1694 292.148 68.4366 292.026 69.3656Z" fill="#B57E6F"/>
    <path d="M277.712 55.0526C277.712 55.0526 282.358 53.3153 284.106 59.2547C285.834 65.1384 289.069 63.8997 291.256 63.4197" stroke="#3A193F" stroke-width="3" stroke-linecap="round" stroke-linejoin="round"/>
    <path d="M293.152 249.542V249.471C290.646 234.495 279.111 166.91 302.284 163.436C306.601 162.789 320.708 168.053 319.253 195.753C318.086 218.049 311.582 234.34 310.498 247.845C310.474 258.953 314.978 264.567 316.187 274.123C317.867 287.439 314.139 309.472 311.487 319.892C311.39 320.938 311.39 324.633 312.575 326.444C313.76 328.256 314.352 328.37 314.136 330.402H300.507C300.565 329.709 300.815 329.049 301.226 328.502C301.638 327.955 302.193 327.546 302.824 327.324C305.031 326.556 307.742 321.149 307.182 318.842C303.852 305.598 298.178 277.406 297.437 273.135L293.152 249.542Z" fill="#B57E6F"/>
    <path d="M335.031 139.812H289.369V295.088H335.031V139.812Z" fill="#41465A"/>
    <path d="M312.746 326.633C313.908 327.841 314.358 328.748 314.136 330.414H300.506C300.506 330.414 299.914 327.937 303.692 326.274C305.004 325.698 311.487 325.324 312.746 326.633Z" fill="#F1B104"/>
    <path d="M278.151 248.591C277.048 259.643 280.986 265.679 281.262 275.315C281.623 288.067 276.026 307.858 272.183 318.294V318.319C271.677 319.703 271.777 322.493 272.334 323.979C273.306 326.565 274.112 330.414 270.711 330.414H252.017C252.017 330.414 251.585 327.887 256.542 327.172C261.324 326.482 267.505 323.636 267.466 318.758C265.611 305.613 263.022 276.808 262.699 272.436C262.323 267.36 261.158 253.911 260.814 249.625C260.813 249.62 260.813 249.615 260.814 249.61C259.446 236.341 252.26 165.523 274.74 163.489C279.087 163.095 292.874 169.187 289.851 196.756C287.552 217.696 280.817 233.015 278.518 245.956C278.385 246.907 278.222 247.802 278.151 248.591Z" fill="#B57E6F"/>
    <path d="M293.798 139.812H248.136V295.088H293.798V139.812Z" fill="#41465A"/>
    <path d="M272.326 323.979C272.326 323.979 275.141 330.414 271.049 330.414H252.018C252.018 330.414 251.25 327.98 256.195 327.172C256.883 327.058 258.862 326.674 258.862 326.674C258.862 326.674 258.252 328.473 262.601 328.278C266.951 328.083 268.898 324.295 272.326 323.979Z" fill="#F1B104"/>
    <path d="M273.36 143.509C273.126 136.049 271.641 128.744 270.779 128.146C268.112 126.288 266.465 122.727 266.681 117.909C258.423 116.623 253.419 110.504 253.419 110.504C253.419 110.504 259.561 99.2667 262.9 95.241C266.012 91.4941 271.813 89.3078 275.869 88.1621L278.222 87.6356C287.576 93.702 296.53 87.2362 297.73 86.2886L303.742 88.7473C306.545 89.9303 310.103 91.6613 312.311 94.3213C315.65 98.347 321.792 109.585 321.792 109.585C321.792 109.585 315.013 116.862 305.872 117.664C303.739 126.79 301.943 141.199 302.613 143.574" fill="#F1B104"/>
    <g style="mix-blend-mode:multiply">
    <path d="M279.552 87.6727L280.494 86.592C280.429 86.9017 277.14 107.055 277.256 111.468H291.718C294.044 104.017 297.869 85.9293 297.869 85.9293C297.869 85.9293 299.41 85.7962 299.161 88.4624C298.432 96.2846 296.266 108.705 296.266 111.468H296.302C296.302 111.468 299.535 131.905 307.129 149.179C314.723 166.452 316.017 222.015 307.007 224.595C287.724 230.126 267.991 227.159 262.136 223.325C257.923 220.566 258.495 176.513 272.468 153.418C277.149 145.676 270.586 133.667 270.195 128.741C269.629 121.752 274.441 111.48 274.441 111.48L279.552 87.6727Z" fill="#E3E3E3"/>
    </g>
    <path d="M305.742 145.559C313.336 162.826 312.622 217.711 303.715 220.609C284.643 226.803 265.727 224.873 260.056 220.064C256.204 216.791 256.589 172.89 270.563 149.795C275.244 142.053 268.678 130.044 268.287 125.118C267.73 118.128 272.533 111.48 272.533 111.48C272.533 108.718 276.352 88.9485 278.512 87.5023C280.672 86.0562 280.669 86.4216 280.669 86.4216C280.669 86.4216 276.098 107.033 276.225 111.48H290.666C292.992 104.029 297.164 85.9416 297.164 85.9416C297.164 85.9416 299.218 85.0714 299.149 87.7501C298.963 95.0365 294.361 108.693 294.361 111.48H294.397C296.803 121.522 299.941 131.356 303.783 140.898C303.97 138.758 304.61 134.017 306.509 136.501C307.798 138.189 305.955 140.749 304.705 142.165C306.566 142.784 310.509 144.459 311.638 147.636L309.911 148.974L305.401 144.763L305.742 145.559Z" fill="#EBF4F7"/>
    <path d="M307.958 194.223H257.333C256.567 194.223 255.946 194.872 255.946 195.672V196.208C255.946 197.008 256.567 197.657 257.333 197.657H307.958C308.724 197.657 309.345 197.008 309.345 196.208V195.672C309.345 194.872 308.724 194.223 307.958 194.223Z" fill="white" stroke="#F1B104" stroke-width="3" stroke-miterlimit="10"/>
    <path d="M305.538 185.85C301.446 187.788 315.12 150.991 317.366 147.036C314.613 140.7 309.68 127.995 305.952 117.652C310.779 117.206 314.942 114.961 317.787 112.951C317.787 112.951 327.12 134.135 327.058 147.767C327.061 152.102 312.8 182.409 305.538 185.85Z" fill="#B57E6F"/>
    <path d="M318.72 115.385C316.646 117.639 311.751 119.94 307.366 121.578C306.785 120.245 306.247 118.946 305.751 117.683L305.952 117.664C310.779 117.218 314.942 114.973 317.787 112.963C318.092 113.728 318.403 114.536 318.72 115.385Z" fill="#3A193F"/>
    <path d="M307.523 183.806C307.508 183.019 301.46 181.66 299.342 181.706C297.223 181.753 293.925 183.255 293.416 183.651C292.906 184.047 291.342 186.323 291.342 186.323C291.342 186.323 291.863 187.438 293.363 186.28C294.862 185.122 297.994 185.376 298.557 185.97C299.825 187.317 296.275 185.924 295.688 186.401C295.102 186.878 295.185 187.302 295.185 187.302C295.185 187.302 298.717 188.088 299.294 188.191C299.872 188.293 302.432 187.615 303.795 187.023C305.158 186.432 307.555 184.97 307.523 183.806Z" fill="#B57E6F"/>
    <path d="M296.613 194.065C299.32 194.065 301.514 191.972 301.514 189.389C301.514 186.807 299.32 184.713 296.613 184.713C293.907 184.713 291.712 186.807 291.712 189.389C291.712 191.972 293.907 194.065 296.613 194.065Z" fill="#F0512F"/>
    <path d="M295.704 193.855C297.828 193.855 299.55 192.012 299.55 189.739C299.55 187.466 297.828 185.624 295.704 185.624C293.58 185.624 291.858 187.466 291.858 189.739C291.858 192.012 293.58 193.855 295.704 193.855Z" fill="#F26B4E"/>
    <path d="M296.222 188.38C296.222 188.665 295.704 189.442 295.704 189.442C295.704 189.442 295.182 188.665 295.182 188.38C295.192 188.243 295.251 188.115 295.348 188.021C295.444 187.928 295.571 187.876 295.702 187.876C295.834 187.876 295.96 187.928 296.057 188.021C296.153 188.115 296.212 188.243 296.222 188.38Z" fill="#F0512F"/>
    <path d="M295.182 191.096C295.182 190.811 295.704 190.037 295.704 190.037C295.704 190.037 296.222 190.811 296.222 191.096C296.212 191.233 296.153 191.361 296.057 191.454C295.96 191.548 295.834 191.6 295.702 191.6C295.571 191.6 295.444 191.548 295.348 191.454C295.251 191.361 295.192 191.233 295.182 191.096Z" fill="#F0512F"/>
    <path d="M294.337 189.206C294.634 189.206 295.404 189.726 295.404 189.726C295.404 189.726 294.625 190.244 294.337 190.244C294.269 190.249 294.2 190.24 294.135 190.216C294.071 190.193 294.011 190.155 293.961 190.107C293.911 190.058 293.87 189.999 293.843 189.933C293.815 189.867 293.801 189.797 293.801 189.725C293.801 189.653 293.815 189.582 293.843 189.517C293.87 189.451 293.911 189.392 293.961 189.343C294.011 189.294 294.071 189.257 294.135 189.233C294.2 189.21 294.269 189.201 294.337 189.206Z" fill="#F0512F"/>
    <path d="M297.067 190.256C296.77 190.256 296.003 189.739 296.003 189.739C296.003 189.739 296.779 189.219 297.067 189.219C297.135 189.213 297.204 189.223 297.269 189.246C297.333 189.27 297.393 189.307 297.443 189.356C297.494 189.404 297.534 189.464 297.561 189.529C297.589 189.595 297.603 189.666 297.603 189.738C297.603 189.809 297.589 189.88 297.561 189.946C297.534 190.012 297.494 190.071 297.443 190.119C297.393 190.168 297.333 190.205 297.269 190.229C297.204 190.252 297.135 190.262 297.067 190.256Z" fill="#F0512F"/>
    <path d="M293.195 193.246C295.314 191.904 296.184 189.354 295.138 187.551C294.092 185.748 291.527 185.374 289.408 186.716C287.289 188.058 286.42 190.608 287.465 192.411C288.511 194.215 291.077 194.589 293.195 193.246Z" fill="#F0512F"/>
    <path d="M292.83 192.932C294.625 191.58 295.22 189.237 294.159 187.698C293.098 186.16 290.783 186.008 288.988 187.36C287.193 188.712 286.598 191.055 287.659 192.594C288.72 194.133 291.035 194.284 292.83 192.932Z" fill="#F26B4E"/>
    <path d="M291.641 188.943C291.594 189.2 290.96 189.9 290.96 189.9C290.96 189.9 290.59 189.2 290.64 188.943C290.673 188.806 290.75 188.685 290.857 188.6C290.965 188.515 291.098 188.471 291.233 188.475C291.291 188.47 291.35 188.478 291.405 188.5C291.46 188.522 291.509 188.557 291.549 188.603C291.588 188.648 291.617 188.702 291.633 188.761C291.65 188.82 291.652 188.883 291.641 188.943Z" fill="#F0512F"/>
    <path d="M290.174 191.393C290.225 191.133 290.859 190.436 290.859 190.436C290.859 190.436 291.226 191.133 291.179 191.393C291.143 191.528 291.065 191.646 290.958 191.73C290.851 191.814 290.72 191.859 290.586 191.857C290.528 191.864 290.469 191.856 290.414 191.834C290.359 191.812 290.309 191.778 290.27 191.733C290.23 191.687 290.2 191.633 290.184 191.574C290.167 191.515 290.164 191.453 290.174 191.393Z" fill="#F0512F"/>
    <path d="M289.68 189.702C289.958 189.702 290.622 190.167 290.622 190.167C290.622 190.167 289.78 190.634 289.505 190.634C289.446 190.641 289.386 190.633 289.331 190.612C289.275 190.59 289.225 190.555 289.185 190.51C289.144 190.464 289.115 190.41 289.098 190.35C289.082 190.29 289.079 190.228 289.09 190.167C289.126 190.033 289.204 189.915 289.31 189.831C289.417 189.747 289.546 189.702 289.68 189.702Z" fill="#F0512F"/>
    <path d="M292.148 190.634C291.872 190.634 291.208 190.166 291.208 190.166C291.208 190.166 292.047 189.702 292.326 189.702C292.384 189.695 292.443 189.702 292.499 189.724C292.554 189.745 292.604 189.78 292.644 189.825C292.684 189.87 292.713 189.925 292.729 189.984C292.746 190.043 292.748 190.106 292.737 190.166C292.704 190.303 292.628 190.423 292.521 190.508C292.414 190.593 292.282 190.637 292.148 190.634Z" fill="#F0512F"/>
    <path d="M245.997 141.886C245.579 143.397 246.059 145.67 247.905 148.414C254.388 158.042 270.72 178.071 275.846 178.644C278.361 178.922 264.637 152.071 254.468 142.849C256.542 139.647 261.561 128.094 266.661 117.865C261.801 117.345 257.985 114.459 255.541 112.545C255.541 112.545 248.335 128.682 245.997 141.886Z" fill="#B57E6F"/>
    <path d="M265.185 120.77C260.975 119.278 256.889 116.59 254.942 114.112C255.091 113.803 255.399 112.858 255.535 112.564C257.979 114.462 261.757 117.02 266.637 117.869L265.185 120.77Z" fill="#3A193F"/>
    <path d="M281.916 181.708L270.132 177.247C269.661 177.069 269.142 177.324 268.971 177.816L268.537 179.068C268.367 179.56 268.61 180.103 269.081 180.281L280.865 184.742C281.336 184.92 281.856 184.666 282.026 184.174L282.46 182.922C282.631 182.43 282.387 181.886 281.916 181.708Z" fill="#41465A"/>
    <path d="M301.004 189.959L282.447 182.933L281.158 186.649C281.158 186.649 293.247 192.981 301.004 189.959Z" fill="#C6EFFF"/>
    <path d="M274.557 174.999C275.899 174.919 281.893 177.904 282.148 178.669C282.403 179.434 285.777 183.704 285.777 183.704C285.777 183.704 284.889 184.633 283.446 183.085C281.754 181.285 281.043 181.354 281.043 181.354C281.043 181.354 280.45 182.632 279.561 182.54C278.672 182.447 278.969 183.673 277.558 183.778C276.726 183.831 276.257 184.382 275.549 183.976C274.841 183.571 272.669 178.365 273.007 176.619C273.3 175.139 273.76 175.049 274.557 174.999Z" fill="#B57E6F"/>
    <path d="M282.151 192.198H274.966C274.665 192.198 274.42 192.453 274.42 192.768V192.981C274.42 193.296 274.665 193.551 274.966 193.551H282.151C282.452 193.551 282.696 193.296 282.696 192.981V192.768C282.696 192.453 282.452 192.198 282.151 192.198Z" fill="#F0512F"/>
    <path d="M289.343 193.738C291.483 192.971 292.773 190.999 292.226 189.333C291.679 187.666 289.501 186.938 287.362 187.705C285.223 188.472 283.933 190.444 284.48 192.111C285.027 193.777 287.204 194.506 289.343 193.738Z" fill="#F0512F"/>
    <path d="M288.99 193.586C290.856 192.817 291.915 190.991 291.356 189.508C290.796 188.025 288.829 187.447 286.963 188.217C285.097 188.986 284.038 190.812 284.597 192.295C285.157 193.777 287.124 194.356 288.99 193.586Z" fill="#F26B4E"/>
    <path d="M288.666 189.888C288.619 190.098 288.026 190.668 288.026 190.668C288.026 190.668 287.683 190.098 287.73 189.888C287.774 189.771 287.853 189.672 287.955 189.605C288.057 189.538 288.176 189.507 288.296 189.516C288.539 189.516 288.711 189.677 288.666 189.888Z" fill="#F0512F"/>
    <path d="M287.295 191.885C287.339 191.675 287.932 191.105 287.932 191.105C287.932 191.105 288.278 191.675 288.228 191.885C288.187 192.002 288.111 192.102 288.012 192.17C287.913 192.239 287.796 192.272 287.677 192.266C287.422 192.266 287.25 192.096 287.295 191.885Z" fill="#F0512F"/>
    <path d="M286.832 190.507C287.146 190.582 287.447 190.709 287.721 190.885C287.389 191.054 287.039 191.182 286.678 191.266C286.418 191.266 286.246 191.095 286.29 190.885C286.332 190.771 286.407 190.674 286.504 190.606C286.601 190.539 286.716 190.504 286.832 190.507Z" fill="#F0512F"/>
    <path d="M289.129 191.266C288.814 191.19 288.514 191.062 288.24 190.885C288.572 190.716 288.922 190.589 289.283 190.507C289.543 190.507 289.715 190.677 289.671 190.885C289.63 190.999 289.555 191.097 289.458 191.166C289.361 191.234 289.246 191.269 289.129 191.266Z" fill="#F0512F"/>
    <path d="M275.259 63.4197C275.259 63.4197 275.875 62.1315 278.029 62.7756" stroke="#3A193F" stroke-width="3" stroke-linecap="round" stroke-linejoin="round"/>
    <path d="M282.329 66.3151C282.329 66.3151 284.542 66.0921 285.715 65.0269" stroke="#3A193F" stroke-width="3" stroke-linecap="round" stroke-linejoin="round"/>
    <path d="M281.096 73.0812C281.096 73.0812 282.329 73.3908 283.87 71.793" stroke="#3A193F" stroke-width="2" stroke-linecap="round" stroke-linejoin="round"/>
    <path d="M279.867 66.3149L279.25 69.2103L280.296 70.5171" stroke="#9E2923" stroke-width="2" stroke-linecap="round" stroke-linejoin="round"/>
    <path d="M294.081 66.2721C294.837 64.6809 294.217 62.7498 292.694 61.9589C291.172 61.168 289.324 61.8167 288.567 63.4079C287.81 64.9991 288.431 66.9302 289.954 67.7212C291.476 68.5121 293.324 67.8633 294.081 66.2721Z" fill="#B57E6F"/>
    <path d="M275.852 66.959C275.852 66.959 276.723 67.4173 278.441 66.7051" stroke="#3A193F" stroke-width="3" stroke-linecap="round" stroke-linejoin="round"/>
    <path d="M281.404 62.7758C281.404 62.7758 282.637 61.0633 285.715 62.24" stroke="#3A193F" stroke-width="3" stroke-linecap="round" stroke-linejoin="round"/>
    <path d="M226.826 143.602C229.746 143.602 232.112 141.128 232.112 138.077C232.112 135.026 229.746 132.553 226.826 132.553C223.907 132.553 221.541 135.026 221.541 138.077C221.541 141.128 223.907 143.602 226.826 143.602Z" fill="#41465A"/>
    <path d="M211.123 141.743C214.042 141.743 216.409 139.27 216.409 136.219C216.409 133.168 214.042 130.694 211.123 130.694C208.203 130.694 205.837 133.168 205.837 136.219C205.837 139.27 208.203 141.743 211.123 141.743Z" fill="#41465A"/>
    <path d="M239.013 46.1587H197.47V89.577H239.013V46.1587Z" fill="#E4F7FF"/>
    <path d="M237.173 44.2358H195.629V87.6542H237.173V44.2358Z" fill="white" stroke="#F1B104" stroke-width="3" stroke-linejoin="round"/>
    <path d="M230.557 51.1504H202.246V80.739H230.557V51.1504Z" fill="#FFE6AA"/>
    <path d="M216.551 59.329C216.551 59.329 217.327 56.638 215.517 55.8174" stroke="#948900" stroke-width="3" stroke-miterlimit="10"/>
    <path d="M220.388 63.559C220.552 64.5719 220.916 65.538 221.457 66.3955C222.067 67.3494 222.419 68.4579 222.475 69.6036C222.531 70.7493 222.289 71.8895 221.775 72.9033C221.262 73.9171 220.495 74.7667 219.557 75.362C218.619 75.9574 217.544 76.2764 216.446 76.285C215.348 76.2937 214.269 75.9919 213.322 75.4114C212.375 74.831 211.596 73.9936 211.068 72.9881C210.54 71.9825 210.281 70.8463 210.321 69.6998C210.36 68.5534 210.696 67.4394 211.292 66.476C211.85 65.5924 212.232 64.6003 212.415 63.559L212.45 63.3391C212.495 63.0728 212.521 62.8065 212.545 62.5371C212.623 61.6289 213.024 60.7842 213.668 60.1693C214.313 59.5544 215.154 59.2138 216.026 59.2144H216.773C217.648 59.2147 218.491 59.5577 219.136 60.1756C219.781 60.7935 220.181 61.6416 220.257 62.5526C220.278 62.822 220.305 63.0883 220.349 63.3546L220.388 63.559Z" fill="white"/>
    <path d="M216.889 59.1868C216.889 59.1868 216.699 56.7095 220.095 55.604C220.089 55.604 220.56 60.0415 216.889 59.1868Z" fill="#B0A81F"/>
    <path d="M204.178 241.01L194.29 337.574C194.275 337.724 194.289 337.877 194.334 338.022C194.378 338.166 194.451 338.3 194.548 338.413C194.645 338.526 194.764 338.616 194.897 338.678C195.029 338.74 195.173 338.772 195.318 338.772C195.559 338.772 195.792 338.684 195.977 338.524C196.162 338.364 196.289 338.142 196.335 337.896L212.409 241.01H204.178Z" fill="white" stroke="#F1B104" stroke-width="3" stroke-miterlimit="10"/>
    <path d="M242.092 241.01L251.979 335.712C251.995 335.863 251.981 336.015 251.938 336.159C251.894 336.303 251.822 336.437 251.727 336.55C251.631 336.664 251.513 336.755 251.382 336.818C251.25 336.881 251.108 336.915 250.963 336.917C250.722 336.917 250.489 336.83 250.303 336.67C250.117 336.51 249.99 336.288 249.944 336.041L233.861 241.01H242.092Z" fill="white" stroke="#F1B104" stroke-width="3" stroke-miterlimit="10"/>
    <path d="M246.921 235.08H198.563C197.242 235.08 196.172 236.199 196.172 237.579V238.508C196.172 239.888 197.242 241.007 198.563 241.007H246.921C248.242 241.007 249.313 239.888 249.313 238.508V237.579C249.313 236.199 248.242 235.08 246.921 235.08Z" fill="white" stroke="#F1B104" stroke-width="3" stroke-miterlimit="10"/>
    <path d="M252.115 233.423C251.819 235.544 238.66 234.399 210.13 234.752C210.075 234.764 210.02 234.77 209.964 234.77C204.631 234.77 200.32 226.31 200.186 204.296C200.053 182.282 207.777 181.127 210.477 181.247C218.447 181.594 219.007 193.634 219.007 204.472C219.005 209.584 218.426 214.677 217.283 219.646C222.728 221.814 223.505 218.844 233.004 221.194C243.294 223.762 252.343 231.735 252.115 233.423Z" fill="#3A193F"/>
    <path d="M264.201 231.292C265.324 231.834 267.054 231.206 268.053 231.19C270.423 231.15 270.906 232.559 270.906 232.559L265.303 245.605C265.303 245.605 263.173 244.967 263.591 241.103C264.026 237.077 264.216 235.33 262.109 234.674C260.002 234.018 262.346 230.391 264.201 231.292Z" fill="#F1B104"/>
    <path d="M262.098 234.618C256.077 234.959 243.816 234.51 224.557 234.752C224.501 234.764 224.445 234.77 224.388 234.77C215.825 234.77 214.743 226.31 214.61 204.296C214.477 182.282 222.198 181.127 224.898 181.247C232.868 181.594 233.428 193.634 233.428 204.472C233.426 209.797 232.797 215.101 231.555 220.265C236.246 221.755 237.932 218.844 247.428 221.194C257.712 223.743 263.68 229.63 264.397 231.915C264.613 232.596 264.995 234.457 262.098 234.618Z" fill="#DB9A8F"/>
    <path d="M233.435 204.485C233.433 208.99 232.983 213.483 232.092 217.89C226.398 218.427 220.669 218.458 214.969 217.98C214.735 214.168 214.649 209.619 214.617 204.296C214.486 182.282 222.205 181.13 224.904 181.248C232.889 181.594 233.435 193.637 233.435 204.485Z" fill="#3A193F"/>
    <path d="M195.819 169.514C203.665 163.776 212.302 154.341 213.105 150.668C214.077 146.221 211.399 141.201 208.13 144.106C203.363 148.345 195.956 155.966 192.604 160.478C187.692 155.428 177.093 145.267 173.864 147.379C172.495 148.274 187.197 167.371 189.982 169.827C191.588 171.245 194.397 170.552 195.819 169.514Z" fill="#DB9A8F"/>
    <path d="M179.272 159.431L160.252 175.488L162.473 178.362L181.493 162.305L179.272 159.431Z" fill="#FFE6AA" stroke="#F1B104" stroke-width="3" stroke-miterlimit="10"/>
    <path d="M181.493 162.305L180.237 163.368C179.867 163.614 179.424 163.709 178.991 163.634C178.559 163.559 178.168 163.32 177.894 162.963C177.62 162.605 177.482 162.154 177.506 161.697C177.531 161.24 177.716 160.808 178.027 160.485L179.283 159.422L181.493 162.305Z" fill="#F1B104"/>
    <path d="M151.798 164.603L160.252 175.488L179.271 159.432L170.818 148.547L151.798 164.603Z" fill="white" stroke="#F1B104" stroke-width="3" stroke-miterlimit="10"/>
    <path d="M179.392 162.996C179.599 162.996 179.766 162.821 179.766 162.606C179.766 162.39 179.599 162.216 179.392 162.216C179.186 162.216 179.019 162.39 179.019 162.606C179.019 162.821 179.186 162.996 179.392 162.996Z" fill="#FFE6AA"/>
    <path d="M181.866 165.127C182.073 165.127 182.24 164.952 182.24 164.736C182.24 164.521 182.073 164.346 181.866 164.346C181.66 164.346 181.493 164.521 181.493 164.736C181.493 164.952 181.66 165.127 181.866 165.127Z" fill="#FFE6AA"/>
    <path d="M183.434 170.391C183.64 170.391 183.807 170.216 183.807 170.001C183.807 169.785 183.64 169.61 183.434 169.61C183.228 169.61 183.061 169.785 183.061 170.001C183.061 170.216 183.228 170.391 183.434 170.391Z" fill="#FFE6AA"/>
    <path d="M181.567 171.759C181.773 171.759 181.941 171.585 181.941 171.369C181.941 171.154 181.773 170.979 181.567 170.979C181.361 170.979 181.194 171.154 181.194 171.369C181.194 171.585 181.361 171.759 181.567 171.759Z" fill="#FFE6AA"/>
    <path d="M183.807 174.869C184.014 174.869 184.181 174.694 184.181 174.479C184.181 174.263 184.014 174.088 183.807 174.088C183.601 174.088 183.434 174.263 183.434 174.479C183.434 174.694 183.601 174.869 183.807 174.869Z" fill="#FFE6AA"/>
    <path d="M184.755 173.131C184.961 173.131 185.129 172.957 185.129 172.741C185.129 172.526 184.961 172.351 184.755 172.351C184.549 172.351 184.382 172.526 184.382 172.741C184.382 172.957 184.549 173.131 184.755 173.131Z" fill="#FFE6AA"/>
    <path d="M180.818 168.92C181.024 168.92 181.191 168.745 181.191 168.529C181.191 168.314 181.024 168.139 180.818 168.139C180.611 168.139 180.444 168.314 180.444 168.529C180.444 168.745 180.611 168.92 180.818 168.92Z" fill="#FFE6AA"/>
    <path d="M180.444 165.91C180.65 165.91 180.817 165.735 180.817 165.52C180.817 165.304 180.65 165.129 180.444 165.129C180.238 165.129 180.071 165.304 180.071 165.52C180.071 165.735 180.238 165.91 180.444 165.91Z" fill="#FFE6AA"/>
    <path d="M181.76 166.272C181.907 166.272 182.027 166.147 182.027 165.994C182.027 165.84 181.907 165.715 181.76 165.715C181.613 165.715 181.493 165.84 181.493 165.994C181.493 166.147 181.613 166.272 181.76 166.272Z" fill="#FFE6AA"/>
    <path d="M180.996 164.625C181.143 164.625 181.262 164.5 181.262 164.346C181.262 164.192 181.143 164.067 180.996 164.067C180.848 164.067 180.729 164.192 180.729 164.346C180.729 164.5 180.848 164.625 180.996 164.625Z" fill="#FFE6AA"/>
    <path d="M182.675 167.783C182.823 167.783 182.942 167.659 182.942 167.505C182.942 167.351 182.823 167.226 182.675 167.226C182.528 167.226 182.409 167.351 182.409 167.505C182.409 167.659 182.528 167.783 182.675 167.783Z" fill="#FFE6AA"/>
    <path d="M183.132 172.874C183.279 172.874 183.399 172.75 183.399 172.596C183.399 172.442 183.279 172.317 183.132 172.317C182.985 172.317 182.865 172.442 182.865 172.596C182.865 172.75 182.985 172.874 183.132 172.874Z" fill="#FFE6AA"/>
    <path d="M185.973 177.714C186.12 177.714 186.24 177.589 186.24 177.435C186.24 177.282 186.12 177.157 185.973 177.157C185.826 177.157 185.707 177.282 185.707 177.435C185.707 177.589 185.826 177.714 185.973 177.714Z" fill="#FFE6AA"/>
    <path d="M183.434 176.16C183.581 176.16 183.7 176.035 183.7 175.881C183.7 175.727 183.581 175.603 183.434 175.603C183.286 175.603 183.167 175.727 183.167 175.881C183.167 176.035 183.286 176.16 183.434 176.16Z" fill="#FFE6AA"/>
    <path d="M185.437 175.039C185.584 175.039 185.704 174.914 185.704 174.76C185.704 174.606 185.584 174.481 185.437 174.481C185.29 174.481 185.17 174.606 185.17 174.76C185.17 174.914 185.29 175.039 185.437 175.039Z" fill="#FFE6AA"/>
    <path d="M182.026 176.16C182.174 176.16 182.293 176.035 182.293 175.881C182.293 175.727 182.174 175.603 182.026 175.603C181.879 175.603 181.76 175.727 181.76 175.881C181.76 176.035 181.879 176.16 182.026 176.16Z" fill="#FFE6AA"/>
    <path d="M182.026 169.456C182.174 169.456 182.293 169.331 182.293 169.177C182.293 169.023 182.174 168.898 182.026 168.898C181.879 168.898 181.76 169.023 181.76 169.177C181.76 169.331 181.879 169.456 182.026 169.456Z" fill="#FFE6AA"/>
    <path d="M185.022 170.79C185.169 170.79 185.289 170.666 185.289 170.512C185.289 170.358 185.169 170.233 185.022 170.233C184.875 170.233 184.755 170.358 184.755 170.512C184.755 170.666 184.875 170.79 185.022 170.79Z" fill="#FFE6AA"/>
    <path d="M180.996 172.741C181.143 172.741 181.262 172.616 181.262 172.462C181.262 172.308 181.143 172.184 180.996 172.184C180.848 172.184 180.729 172.308 180.729 172.462C180.729 172.616 180.848 172.741 180.996 172.741Z" fill="#FFE6AA"/>
    <path d="M179.769 161.791C179.867 161.791 179.947 161.708 179.947 161.605C179.947 161.503 179.867 161.419 179.769 161.419C179.671 161.419 179.591 161.503 179.591 161.605C179.591 161.708 179.671 161.791 179.769 161.791Z" fill="#FFE6AA"/>
    <path d="M180.818 167.409C180.916 167.409 180.996 167.326 180.996 167.223C180.996 167.12 180.916 167.037 180.818 167.037C180.72 167.037 180.64 167.12 180.64 167.223C180.64 167.326 180.72 167.409 180.818 167.409Z" fill="#FFE6AA"/>
    <path d="M180.818 167.409C180.916 167.409 180.996 167.326 180.996 167.223C180.996 167.12 180.916 167.037 180.818 167.037C180.72 167.037 180.64 167.12 180.64 167.223C180.64 167.326 180.72 167.409 180.818 167.409Z" fill="#FFE6AA"/>
    <path d="M181.493 170.187C181.591 170.187 181.671 170.103 181.671 170.001C181.671 169.898 181.591 169.815 181.493 169.815C181.395 169.815 181.315 169.898 181.315 170.001C181.315 170.103 181.395 170.187 181.493 170.187Z" fill="#FFE6AA"/>
    <path d="M183.31 168.322C183.408 168.322 183.487 168.239 183.487 168.136C183.487 168.034 183.408 167.951 183.31 167.951C183.211 167.951 183.132 168.034 183.132 168.136C183.132 168.239 183.211 168.322 183.31 168.322Z" fill="#FFE6AA"/>
    <path d="M184.337 169.363C184.436 169.363 184.515 169.28 184.515 169.177C184.515 169.074 184.436 168.991 184.337 168.991C184.239 168.991 184.16 169.074 184.16 169.177C184.16 169.28 184.239 169.363 184.337 169.363Z" fill="#FFE6AA"/>
    <path d="M182.942 174.664C183.04 174.664 183.12 174.581 183.12 174.478C183.12 174.376 183.04 174.292 182.942 174.292C182.844 174.292 182.764 174.376 182.764 174.478C182.764 174.581 182.844 174.664 182.942 174.664Z" fill="#FFE6AA"/>
    <path d="M181.567 174.026C181.666 174.026 181.745 173.943 181.745 173.841C181.745 173.738 181.666 173.655 181.567 173.655C181.469 173.655 181.39 173.738 181.39 173.841C181.39 173.943 181.469 174.026 181.567 174.026Z" fill="#FFE6AA"/>
    <path d="M184.933 175.603C185.031 175.603 185.111 175.519 185.111 175.417C185.111 175.314 185.031 175.231 184.933 175.231C184.835 175.231 184.755 175.314 184.755 175.417C184.755 175.519 184.835 175.603 184.933 175.603Z" fill="#FFE6AA"/>
    <path d="M184.382 176.971C184.48 176.971 184.56 176.888 184.56 176.785C184.56 176.683 184.48 176.6 184.382 176.6C184.284 176.6 184.204 176.683 184.204 176.785C184.204 176.888 184.284 176.971 184.382 176.971Z" fill="#FFE6AA"/>
    <path d="M185.615 174.026C185.713 174.026 185.793 173.943 185.793 173.841C185.793 173.738 185.713 173.655 185.615 173.655C185.517 173.655 185.437 173.738 185.437 173.841C185.437 173.943 185.517 174.026 185.615 174.026Z" fill="#FFE6AA"/>
    <path d="M181.191 175.225C181.289 175.225 181.369 175.141 181.369 175.039C181.369 174.936 181.289 174.853 181.191 174.853C181.093 174.853 181.013 174.936 181.013 175.039C181.013 175.141 181.093 175.225 181.191 175.225Z" fill="#FFE6AA"/>
    <path d="M182.942 177.157C183.04 177.157 183.12 177.074 183.12 176.971C183.12 176.869 183.04 176.786 182.942 176.786C182.844 176.786 182.764 176.869 182.764 176.971C182.764 177.074 182.844 177.157 182.942 177.157Z" fill="#FFE6AA"/>
    <path d="M184.157 171.246C184.255 171.246 184.335 171.162 184.335 171.06C184.335 170.957 184.255 170.874 184.157 170.874C184.059 170.874 183.979 170.957 183.979 171.06C183.979 171.162 184.059 171.246 184.157 171.246Z" fill="#FFE6AA"/>
    <path d="M182.498 174.026C182.596 174.026 182.675 173.943 182.675 173.841C182.675 173.738 182.596 173.655 182.498 173.655C182.399 173.655 182.32 173.738 182.32 173.841C182.32 173.943 182.399 174.026 182.498 174.026Z" fill="#FFE6AA"/>
    <path d="M182.498 171.948C182.596 171.948 182.675 171.865 182.675 171.762C182.675 171.66 182.596 171.577 182.498 171.577C182.399 171.577 182.32 171.66 182.32 171.762C182.32 171.865 182.399 171.948 182.498 171.948Z" fill="#FFE6AA"/>
    <path d="M174.56 152.582C175.016 152.613 176.598 151.873 176.874 150.442C177.259 148.435 178.868 148.745 177.058 147.674C175.387 146.686 170.634 146.664 169.558 147.017C168.483 147.37 167.058 148.754 166.927 149.027C166.797 149.299 165.97 151.328 165.97 151.328C165.97 151.328 167.766 152.675 168.821 151.637C169.254 151.205 169.773 150.875 170.34 150.672C170.907 150.469 171.51 150.397 172.107 150.461C172.672 150.533 173.19 150.827 173.555 151.284L174.56 152.582Z" fill="#DB9A8F"/>
    <path d="M224.023 142.505C226.349 143.208 229.176 144.428 231.069 158.756C232.963 173.085 242.329 212.357 242.491 213.344C242.654 214.332 205.06 217.166 192.77 208.768C192.77 208.768 203.831 152.768 207.62 145.165C208.616 143.168 211.751 142.329 214.613 142.084C217.475 141.839 220.527 141.446 224.023 142.505Z" fill="#EBF4F7"/>
    <path d="M221.493 135.59C221.493 135.59 220.663 139.269 224.023 142.505C224.023 142.505 216.18 146.596 210.986 142.846C210.986 142.846 213.807 139.582 213.502 135.59H221.493Z" fill="#DB9A8F"/>
    <path d="M221.997 139.585C219.626 141.397 215.866 143.282 211.988 141.397C212.764 140.071 213.683 137.959 213.502 135.59H221.502C221.283 136.944 221.455 138.335 221.997 139.585Z" fill="#3A193F"/>
    <path d="M225.185 135.968C225.185 135.968 216.847 144.533 210.963 137.702C205.955 131.877 213.212 118.193 220.675 121.6C226.853 124.405 225.185 135.968 225.185 135.968Z" fill="#DB9A8F"/>
    <path d="M218.809 122.457C218.809 122.457 218.895 130.289 225.226 133.107L225.016 137.346C225.016 137.346 231.084 137.256 231.795 132.082C232.9 124.049 229.244 118.995 224.293 117.949C219.342 116.902 210.924 117.02 209.893 122.959C209.671 124.238 210.05 128.614 210.05 128.614C210.05 128.614 212.444 121.055 218.809 122.457Z" fill="#41465A"/>
    <path d="M218.809 122.086C218.809 122.086 216.237 129.732 222.913 132.537" stroke="#41465A" stroke-width="3" stroke-miterlimit="10"/>
    <path d="M224.847 136.12C224.847 136.12 228.056 135.81 227.748 134.262C227.44 132.713 225.061 133.116 225.061 133.116L224.847 136.12Z" fill="#DB9A8F"/>
    <path opacity="0.85" d="M204.261 182.394C203.852 184.809 202.992 187.117 201.729 189.185C200.467 191.253 198.827 193.041 196.904 194.446C194.98 195.852 192.811 196.848 190.519 197.377C188.227 197.906 185.858 197.958 183.547 197.53C178.881 196.666 174.735 193.902 172.019 189.844C169.303 185.786 168.24 180.767 169.064 175.891L204.261 182.394Z" fill="white"/>
    <path d="M204.261 182.394C203.852 184.809 202.992 187.117 201.729 189.185C200.467 191.253 198.827 193.041 196.904 194.446C194.98 195.852 192.811 196.848 190.519 197.377C188.227 197.906 185.858 197.958 183.547 197.53V197.53C178.881 196.666 174.735 193.902 172.019 189.844C169.303 185.786 168.24 180.767 169.064 175.891L204.261 182.394Z" stroke="#F1B104" stroke-width="3" stroke-miterlimit="10"/>
    <path d="M195.573 193.69C192.585 195.873 188.966 196.905 185.332 196.61C181.697 196.315 178.274 194.712 175.644 192.074C176.352 191.145 181.158 194.653 185.961 191.971C194.474 187.224 195.484 192.993 195.573 193.69Z" fill="#FFE6AA"/>
    <path d="M227.988 149.68C228.631 145.169 223.544 143.979 220.776 148.045C218.199 151.842 212.987 168.985 212.987 168.985C210.981 170.087 189.837 184.855 190.545 187.218C190.939 188.534 207.117 182.883 217.049 176.733C219.01 175.417 226.308 161.417 227.988 149.68Z" fill="#DB9A8F"/>
    <path d="M192.889 187.348C192.071 187.732 186.913 189.999 185.778 189.943C184.643 189.887 182.418 188.283 182.222 188.051C182.027 187.819 181.224 186.521 181.224 186.521C181.224 186.521 182.089 185.592 182.88 186.521C183.819 187.627 185.499 187.357 186.385 186.986C186.755 186.831 187.318 186.258 187.034 185.769C186.75 185.279 185.31 185.828 184.865 185.722C184.655 185.656 184.464 185.536 184.309 185.374C184.154 185.212 184.04 185.013 183.976 184.793L186.687 183.864C187.123 183.716 190.243 183.849 192.038 184.688C193.834 185.527 194.797 186.45 192.889 187.348Z" fill="#DB9A8F"/>
    <path d="M98.3708 328.708C98.3708 331.854 96.0508 333.003 96.0537 338.586H119.757C119.757 338.586 120.181 332.826 114.157 332.65C108.99 332.498 105.085 329.194 105.141 328.708C105.197 328.222 98.3708 328.708 98.3708 328.708Z" fill="#2B303F"/>
    <path d="M95.8727 338.013H119.914V338.564C119.914 338.767 119.837 338.962 119.7 339.105C119.563 339.249 119.376 339.329 119.182 339.329H96.5927C96.3986 339.329 96.2124 339.249 96.0752 339.105C95.9379 338.962 95.8608 338.767 95.8608 338.564V338.013H95.8727Z" fill="#6DB1BA"/>
    <path d="M106.8 334.13C106.775 334.133 106.751 334.133 106.726 334.13C106.68 334.121 106.636 334.102 106.598 334.074C106.559 334.047 106.526 334.012 106.5 333.971C106.474 333.93 106.457 333.884 106.448 333.836C106.44 333.788 106.44 333.738 106.45 333.69C106.468 333.598 106.91 331.439 108.258 330.804C108.889 330.495 109.588 330.584 110.332 331.037C110.372 331.061 110.408 331.093 110.436 331.132C110.465 331.171 110.486 331.215 110.498 331.262C110.51 331.309 110.513 331.359 110.507 331.407C110.501 331.455 110.486 331.502 110.462 331.544C110.439 331.587 110.408 331.624 110.371 331.654C110.334 331.683 110.291 331.705 110.246 331.718C110.201 331.73 110.154 331.734 110.108 331.727C110.062 331.721 110.017 331.705 109.976 331.681C109.425 331.352 108.954 331.287 108.539 331.482C107.692 331.882 107.239 333.322 107.135 333.842C107.117 333.922 107.075 333.994 107.014 334.046C106.954 334.098 106.878 334.128 106.8 334.13Z" fill="#6DB1BA"/>
    <path d="M109.825 334.322C109.796 334.327 109.766 334.327 109.736 334.322C109.691 334.31 109.648 334.288 109.611 334.259C109.574 334.229 109.542 334.192 109.518 334.15C109.495 334.107 109.479 334.061 109.473 334.012C109.467 333.963 109.47 333.914 109.482 333.867C109.499 333.802 109.905 332.216 111.102 331.634C111.766 331.324 112.522 331.361 113.348 331.776C113.425 331.823 113.482 331.897 113.509 331.986C113.535 332.074 113.53 332.169 113.493 332.253C113.456 332.337 113.39 332.404 113.308 332.44C113.227 332.476 113.136 332.479 113.052 332.448C112.427 332.139 111.867 332.089 111.416 332.309C110.528 332.746 110.187 334.043 110.184 334.056C110.16 334.135 110.113 334.204 110.048 334.252C109.983 334.3 109.905 334.325 109.825 334.322Z" fill="#6DB1BA"/>
    <path d="M109.846 327.54C108.096 328.22 106.275 328.678 104.421 328.903C101.268 329.327 95.4963 328.469 95.4963 328.469C89.4311 318.516 83.1318 289.947 84.1541 266.455C84.7467 253.186 92.0829 247.383 87.357 235.65C83.1852 225.976 68.5333 199.391 66.1244 177.513C65.2355 169.561 66.4711 163.739 68.7733 159.596C70.2933 159.825 71.8015 160.032 73.283 160.215C83.3748 161.534 92.3318 162.104 96.5511 162.048C101.467 171.899 106.865 189.937 110.61 225.623L111.612 240.998C112.098 248.662 109.819 286.804 109.846 327.54Z" fill="#41465A"/>
    <path d="M43.9938 328.708C43.9938 331.854 41.6738 333.003 41.6738 338.587H65.5642C65.5642 338.587 65.9879 332.827 59.9642 332.65C54.7968 332.499 51.2412 329.194 51.2975 328.708C51.3538 328.222 43.9938 328.708 43.9938 328.708Z" fill="#2B303F"/>
    <path d="M41.6738 338.014H65.7153V338.565C65.7153 338.768 65.6382 338.962 65.501 339.106C65.3637 339.249 65.1776 339.33 64.9835 339.33H42.4086C42.2145 339.33 42.0284 339.249 41.8911 339.106C41.7539 338.962 41.6768 338.768 41.6768 338.565V338.014H41.6738Z" fill="#6DB1BA"/>
    <path d="M52.8381 334.323H52.767C52.7211 334.313 52.6775 334.294 52.6387 334.267C52.5999 334.239 52.5667 334.204 52.541 334.163C52.5154 334.122 52.4978 334.076 52.4893 334.028C52.4808 333.98 52.4815 333.931 52.4915 333.883C52.5092 333.793 52.9507 331.632 54.2989 330.997C54.93 330.687 55.6292 330.777 56.3729 331.229C56.4134 331.253 56.4489 331.286 56.4773 331.325C56.5058 331.363 56.5267 331.408 56.5388 331.455C56.5509 331.502 56.554 331.551 56.5479 331.599C56.5418 331.648 56.5267 331.695 56.5033 331.737C56.48 331.779 56.4489 331.816 56.4118 331.846C56.3748 331.876 56.3325 331.897 56.2874 331.91C56.2422 331.923 56.1952 331.926 56.1488 331.92C56.1025 331.913 56.0579 331.897 56.0174 331.873C55.4663 331.545 54.9952 331.48 54.5804 331.675C53.7329 332.074 53.2796 333.514 53.1759 334.035C53.1577 334.115 53.1148 334.186 53.0537 334.238C52.9927 334.29 52.9169 334.32 52.8381 334.323Z" fill="#6DB1BA"/>
    <path d="M55.8664 334.508C55.8369 334.513 55.8069 334.513 55.7775 334.508C55.7321 334.496 55.6894 334.475 55.652 334.445C55.6146 334.416 55.5831 334.379 55.5594 334.336C55.5357 334.294 55.5203 334.247 55.514 334.199C55.5077 334.15 55.5106 334.101 55.5227 334.053C55.5375 333.988 55.9464 332.403 57.1434 331.824C57.8071 331.514 58.5627 331.548 59.3893 331.963C59.4659 332.009 59.5231 332.084 59.5498 332.172C59.5764 332.26 59.5707 332.356 59.5337 332.44C59.4966 332.524 59.4309 332.59 59.3495 332.626C59.268 332.663 59.1765 332.666 59.093 332.635C58.4678 332.325 57.9078 332.276 57.4575 332.499C56.5686 332.932 56.2278 334.23 56.2219 334.242C56.1995 334.322 56.1524 334.391 56.088 334.439C56.0235 334.487 55.9455 334.512 55.8664 334.508Z" fill="#6DB1BA"/>
    <path d="M75.7864 230.163C75.6264 231.739 74.8531 237.133 74.2724 240.691C72.8176 249.628 53.8665 324.967 53.4427 328.72C53.4427 328.72 51.7242 329.278 48.3702 329.383C45.8256 329.413 43.2811 329.31 40.7465 329.073C37.0279 318.176 33.8605 289.436 38.8946 267.759C41.5939 256.125 49.2442 249.025 49.6235 238.843C47.8457 228.686 39.3005 197.087 41.7035 174.869C42.7079 165.597 45.8368 159.54 49.7035 155.806C57.1465 157.757 65.5524 159.212 73.2916 160.218C76.9005 170.149 79.9998 189.206 75.7864 230.163Z" fill="#41465A"/>
    <path d="M136.592 149.228C109.558 127.273 106.666 103.159 106.139 97.0742C105.383 88.1992 109.78 81.1512 121.292 88.5181C131.206 94.857 141.357 117.645 147.606 129.283C160.05 117.484 177.783 106.925 179.677 105.606C184.121 102.509 185.078 105.513 182.743 108.724C180.05 112.44 161.472 145.299 152.32 150.984C148.939 153.084 142.595 154.093 136.592 149.228Z" fill="#FFB3A4"/>
    <path d="M141.334 117.104C135.861 126.796 125.683 132.209 121.594 134.076C108.785 117.305 106.525 101.562 106.142 97.0744C105.387 88.1994 109.784 81.1545 121.295 88.5153C128.35 93.0302 135.526 105.875 141.334 117.104Z" fill="#3A193F"/>
    <path d="M186.906 97.2816C186.61 98.2663 185.354 99.6722 186.391 99.8178C186.927 99.8921 190.886 99.8178 191.152 101.382C191.255 102.118 191.115 102.87 190.755 103.512C190.955 103.889 191.049 104.318 191.026 104.749C191.002 105.18 190.862 105.595 190.622 105.946C191.019 106.847 191.007 107.934 190.586 108.349C190.586 108.349 191.179 110.644 190.26 111.015C187.392 112.173 182.441 111.588 180.779 111.093C179.336 110.662 178.166 109.201 178.166 105.937C178.166 104.599 179.887 101.363 181.037 100.081C181.508 99.5577 183.253 97.4488 183.825 96.8852C184.639 96.056 185.256 95.0389 185.626 93.9155C185.626 93.9155 187.718 94.5287 186.906 97.2816Z" fill="#FFB3A4"/>
    <path d="M190.171 101.013C190.171 101.704 186.201 101.249 185.49 101.301C184.485 101.375 184.305 103.565 185.602 103.543C187.331 103.721 189.071 103.721 190.799 103.543" stroke="#E2564B" stroke-width="3" stroke-linecap="round" stroke-linejoin="round"/>
    <path d="M190.589 105.946C186.29 106.197 185.185 105.946 185.185 105.946C184.56 105.98 184.086 103.611 185.603 103.543" stroke="#E2564B" stroke-width="3" stroke-linecap="round" stroke-linejoin="round"/>
    <path d="M190.382 108.349C186.322 108.659 184.977 108.349 184.977 108.349C184.385 108.334 183.976 105.915 185.185 105.946" stroke="#E2564B" stroke-width="3" stroke-linecap="round" stroke-linejoin="round"/>
    <path d="M186.074 108.485C186.074 108.485 184.684 108.135 184.592 109.055C184.405 110.687 185.134 110.975 188.788 110.829" stroke="#E2564B" stroke-width="3" stroke-linecap="round" stroke-linejoin="round"/>
    <path d="M119.093 131.785C119.093 131.785 140.05 120.77 142.104 113.573C142.104 113.573 130.276 92.5841 119.108 86.6137C107.941 80.6433 93.2148 91.1163 119.093 131.785Z" fill="#F1B104"/>
    <path d="M62.5895 170.007C43.3718 164.931 39.3688 162.222 48.5421 148.708C55.8636 137.922 57.0962 97.0462 66.9629 83.8637C76.6369 70.9321 90.4355 73.6447 95.1584 74.2455C95.1584 74.2455 103.194 73.9699 118.344 85.6412C137.662 100.527 126.658 117.884 123.988 123.65C122.358 127.171 115.609 138.665 98.7643 158.577C96.2962 161.491 98.7021 167.48 99.1169 168.66C99.5317 169.839 83.668 175.581 62.5895 170.007Z" fill="#F1B104"/>
    <path d="M105.407 60.1743C105.407 60.1743 103.221 68.7242 94.7021 74.3446C94.7021 74.3446 102.347 83.517 116.675 84.4026C116.675 84.4026 110.453 78.3951 118.936 66.5225L105.407 60.1743Z" fill="#FFB3A4"/>
    <path d="M105.704 60.3105C105.484 60.8308 105.307 61.2674 105.188 61.5864C105.188 61.5864 103.707 66.8135 105.339 70.994C106.601 74.2424 111.535 79.1661 114.198 78.971C114.24 76.1159 115.561 71.2294 118.939 66.5225L105.704 60.3105Z" fill="#3A193F"/>
    <path d="M105.099 61.3416C105.099 61.3416 106.118 66.8258 107.259 68.7458C109.253 72.1025 114.332 75.3293 116.444 75.1187C117.896 74.9732 119.834 74.9608 122.963 68.4361C123.852 66.5781 127.831 54.6497 127.342 53.9468C126.853 53.2439 113.481 46.1401 112.136 47.4005C110.791 48.6608 106.038 58.8519 105.099 61.3416Z" fill="#FFB3A4"/>
    <path d="M106.634 57.7962C106.634 57.7962 109.3 59.1928 110.512 54.0802C111.597 49.525 112.829 49.0357 117.41 52.953C121.137 56.1426 129.191 59.8338 132.16 55.9506C134.88 52.3894 132.572 49.525 129.852 49.7944C126.539 50.1196 125.641 42.4058 118.459 41.0309C112.723 39.9223 110.518 44.6292 110.518 44.6292C110.518 44.6292 107.683 42.4615 105.526 45.7564C102.806 49.8997 105.057 61.4131 105.057 61.4131L106.634 57.7962Z" fill="#41465A"/>
    <path d="M116.305 51.0952C119.991 54.9815 125.787 59.7968 129.366 58.1866" stroke="#41465A" stroke-width="3" stroke-linecap="round" stroke-linejoin="round"/>
    <path d="M110.595 44.8706C110.595 44.8706 110.118 42.5512 107.929 42.9599" stroke="#41465A" stroke-width="3" stroke-miterlimit="10"/>
    <path d="M106.785 57.8677C106.785 57.8677 106.116 55.5049 104.35 56.1552C103.031 56.6414 105.028 61.5125 105.028 61.5125L106.785 57.8677Z" fill="#FFB3A4"/>
    <path d="M73.2825 160.228C83.3566 161.547 92.3314 162.117 96.5507 162.061C97.6436 164.275 98.6208 166.549 99.4781 168.873C100.663 174.026 102.897 181.632 105.194 189.407L110.189 221.777C105.395 225.022 94.3374 227.097 83.4485 227.311C81.6203 223.483 79.4633 218.95 77.3033 213.995C77.007 218.099 76.6119 222.487 76.1181 227.159C64.8588 226.44 55.4959 223.396 56.0262 217.175C59.1344 180.635 52.7018 160.971 50.5151 156.025" fill="#2B303F"/>
    <path d="M89.8368 73.5427C89.8368 73.5427 110.655 107.392 81.3835 129.849C53.9228 150.907 49.748 146.571 49.748 146.571L47.1909 150.792C47.1909 150.792 61.748 175.565 59.665 215.094C58.9539 228.583 113.132 226.75 112.649 217.29C112.166 207.83 96.9302 161.819 98.7554 158.577C100.581 155.335 123.754 133.952 125.443 114.521C126.782 99.1212 120.723 87.6511 120.723 87.6511L116.696 84.1209C116.696 84.1209 121.825 99.0654 119.105 110.04C119.105 110.04 106.302 108.148 105.28 107.519C104.258 106.891 101.786 85.1862 95.0665 74.3448C93.7628 72.2421 89.8368 73.5427 89.8368 73.5427Z" fill="#FFF4DE"/>
    <path d="M132.124 188.772H149.013C149.998 188.772 150.942 189.181 151.638 189.909C152.334 190.637 152.726 191.624 152.726 192.653V194.096C152.726 195.12 152.338 196.104 151.647 196.831C150.955 197.558 150.017 197.969 149.037 197.976H132.148V188.772H132.124Z" fill="#FFE6AA" stroke="#F1B104" stroke-width="3" stroke-miterlimit="10"/>
    <path d="M123.584 183.96C124.109 184.855 125.066 185.472 126.547 185.289C128.553 185.041 134.716 184.481 137.131 187.32C138.687 189.147 140.07 190.46 140.07 190.46C140.07 190.46 138.844 191.792 137.181 191.03C134.281 189.705 130.61 191.265 129.404 191.959C128.198 192.653 124.381 193.452 120.675 189.482C116.968 185.512 123.584 183.96 123.584 183.96Z" fill="#FFB3A4"/>
    <path d="M86.4468 158.611C97.6172 172.292 119.493 188.779 121.638 190.312C123.339 191.529 126.897 189.156 124.71 185.834C122.393 182.304 107.164 153.83 98.2779 143.886C98.4468 131.565 99.4187 95.4916 92.6483 83.842C87.1846 74.4219 73.9609 80.6617 71.1283 89.0661C67.3535 100.291 66.7372 122.318 80.9861 150.259C81.7001 151.662 84.2364 156.072 86.4468 158.611Z" fill="#FFB3A4"/>
    <path d="M98.3046 120.197C90.6009 123.569 78.1772 124.771 71.6024 125.183C67.6142 109.229 68.592 96.6158 71.1372 89.0662C73.9698 80.6618 87.1905 74.4251 92.6572 83.8421C96.6601 90.7322 97.952 106.181 98.3046 120.197Z" fill="#3A193F"/>
    <path d="M67.1997 121.389C67.1997 121.389 87.9552 122.841 98.6989 117.921C98.6989 117.921 101.212 76.0168 82.0115 77.3546C58.9626 78.9649 67.1997 121.389 67.1997 121.389Z" fill="#F1B104"/>
    <path d="M132.124 197.945C134.548 197.945 136.512 195.891 136.512 193.359C136.512 190.826 134.548 188.772 132.124 188.772C129.7 188.772 127.736 190.826 127.736 193.359C127.736 195.891 129.7 197.945 132.124 197.945Z" fill="white" stroke="#F1B104" stroke-width="3" stroke-miterlimit="10"/>
    <path d="M131.046 192.219H127.324C126.827 192.219 126.423 192.641 126.423 193.161V193.511C126.423 194.03 126.827 194.452 127.324 194.452H131.046C131.543 194.452 131.946 194.03 131.946 193.511V193.161C131.946 192.641 131.543 192.219 131.046 192.219Z" fill="#FFE6AA" stroke="#F1B104" stroke-width="3" stroke-miterlimit="10"/>
    <path d="M354.035 198.162H99.9673C98.3587 198.162 97.0547 199.524 97.0547 201.206V202.342C97.0547 204.023 98.3587 205.386 99.9673 205.386H354.035C355.644 205.386 356.948 204.023 356.948 202.342V201.206C356.948 199.524 355.644 198.162 354.035 198.162Z" fill="white" stroke="#F1B104" stroke-width="3" stroke-miterlimit="10"/>
    <path d="M348.675 205.383H342.012V338.769H348.675V205.383Z" fill="white" stroke="#F1B104" stroke-width="3" stroke-miterlimit="10"/>
    <path d="M111.988 205.383H105.327V338.769H111.988V205.383Z" fill="white" stroke="#F1B104" stroke-width="3" stroke-miterlimit="10"/>
    <path d="M105.327 205.383H111.988V208.362L105.327 207.619V205.383Z" fill="#F1B104"/>
    <path d="M348.675 205.383V208.548L342.012 207.619V205.383H348.675Z" fill="#F1B104"/>
    <path d="M117.487 56.0775C117.487 56.0775 116.13 54.9813 113.792 56.0775" stroke="#41465A" stroke-width="3" stroke-linecap="round" stroke-linejoin="round"/>
    <path d="M116.199 59.6857C116.3 59.086 116.022 58.534 115.579 58.4528C115.136 58.3716 114.695 58.792 114.594 59.3917C114.494 59.9914 114.771 60.5434 115.215 60.6245C115.658 60.7057 116.099 60.2854 116.199 59.6857Z" fill="#242854"/>
    <path d="M123.673 61.7047C123.807 61.112 123.56 60.5442 123.122 60.4365C122.683 60.3288 122.22 60.7219 122.087 61.3146C121.953 61.9072 122.2 62.475 122.638 62.5827C123.076 62.6905 123.54 62.2973 123.673 61.7047Z" fill="#242854"/>
    <path d="M120.444 59.3013L120.74 64.8753L118.936 65.5596" stroke="#E2564B" stroke-width="3" stroke-linecap="round" stroke-linejoin="round"/>
    <path d="M114.222 65.4941C114.222 65.4941 114.222 67.9715 115.999 68.5908" stroke="#41465A" stroke-width="3" stroke-linecap="round" stroke-linejoin="round"/>
    <path d="M106.222 61.4687C107.858 61.4687 109.185 60.0823 109.185 58.3721C109.185 56.6618 107.858 55.2754 106.222 55.2754C104.585 55.2754 103.259 56.6618 103.259 58.3721C103.259 60.0823 104.585 61.4687 106.222 61.4687Z" fill="#FFB3A4"/>
    <path d="M213.04 128.794C213.213 128.312 213.042 127.8 212.659 127.649C212.276 127.499 211.826 127.768 211.653 128.25C211.48 128.732 211.65 129.245 212.033 129.395C212.416 129.545 212.867 129.276 213.04 128.794Z" fill="#242854"/>
    <path d="M217.927 130.498C218.1 130.016 217.93 129.504 217.547 129.354C217.164 129.203 216.713 129.472 216.54 129.954C216.367 130.436 216.538 130.949 216.921 131.099C217.304 131.249 217.754 130.98 217.927 130.498Z" fill="#242854"/>
    <path d="M214.93 128.524L212.592 131.144L213.552 133.061" stroke="#E2564B" stroke-width="3" stroke-linecap="round" stroke-linejoin="round"/>
    <path d="M217.351 126.963C217.351 126.963 218.518 126.802 219.703 128.041" stroke="#41465A" stroke-width="3" stroke-linecap="round" stroke-linejoin="round"/>
    <path d="M213.185 134.86C213.826 135.111 214.521 135.171 215.193 135.035C215.865 134.898 216.488 134.569 216.992 134.085" stroke="#41465A" stroke-width="3" stroke-linecap="round" stroke-linejoin="round"/>
    <path d="M225.778 120.857C223.407 121.03 221.351 118.937 221.351 118.937C221.351 118.937 223.129 116.562 225.476 116.385C227.822 116.209 229.899 118.293 229.899 118.293C229.899 118.293 228.148 120.68 225.778 120.857Z" fill="#F1B104"/>
    <path d="M217.262 115.989C218.397 118.156 221.197 118.853 221.197 118.853C221.197 118.853 222.16 116.02 221.028 113.846C219.896 111.672 217.093 110.981 217.093 110.981C217.093 110.981 216.13 113.815 217.262 115.989Z" fill="#F1B104"/>
    <path d="M221.964 119.768C222.585 119.541 222.912 118.831 222.695 118.182C222.477 117.533 221.798 117.191 221.177 117.418C220.556 117.645 220.229 118.355 220.446 119.004C220.663 119.653 221.343 119.995 221.964 119.768Z" fill="#F1B104"/>
    <path d="M221.152 119.349C221.152 119.349 226.838 124.093 226.308 130.806C226.432 130.887 227.493 130.806 227.493 130.806C227.493 130.806 229.386 124.988 224.323 120.253" fill="#F1B104"/>
    <path d="M351.111 185.311C351.111 190.906 348.148 195.678 343.973 197.545H336.178C332.009 195.687 329.043 190.906 329.043 185.311C329.043 180.381 331.345 176.086 334.747 173.853C335.06 173.649 335.319 173.364 335.498 173.027C335.677 172.689 335.772 172.31 335.772 171.924C335.772 171.542 335.679 171.167 335.504 170.833C335.328 170.498 335.075 170.215 334.767 170.01L333.671 169.279C333.604 169.233 333.553 169.165 333.525 169.086C333.497 169.007 333.495 168.921 333.517 168.841C333.54 168.76 333.586 168.689 333.65 168.638C333.714 168.587 333.792 168.559 333.873 168.558H344.056C344.156 168.558 344.254 168.581 344.345 168.624C344.435 168.667 344.516 168.73 344.581 168.809C344.646 168.888 344.694 168.98 344.722 169.08C344.75 169.18 344.758 169.285 344.744 169.388L344.382 171.927C344.383 172.312 344.478 172.691 344.657 173.028C344.836 173.365 345.094 173.649 345.407 173.853C348.803 176.089 351.111 180.381 351.111 185.311Z" fill="white"/>
    <path d="M349.603 185.376C349.603 191.092 346.584 195.969 342.341 197.877H334.406C330.163 195.972 327.144 191.092 327.144 185.376C327.144 180.337 329.487 175.953 332.948 173.676C333.267 173.467 333.531 173.177 333.714 172.832C333.897 172.488 333.993 172.101 333.994 171.707C333.993 171.317 333.899 170.933 333.72 170.591C333.541 170.248 333.283 169.958 332.969 169.747L331.855 169.001C331.786 168.954 331.733 168.885 331.705 168.804C331.677 168.723 331.674 168.635 331.697 168.553C331.72 168.471 331.768 168.398 331.834 168.347C331.9 168.295 331.98 168.267 332.062 168.267H342.432C342.534 168.266 342.634 168.289 342.726 168.333C342.819 168.377 342.901 168.441 342.967 168.522C343.033 168.602 343.082 168.696 343.11 168.798C343.138 168.9 343.144 169.007 343.129 169.112L342.764 171.707C342.765 172.101 342.861 172.488 343.043 172.832C343.225 173.177 343.488 173.467 343.807 173.676C347.259 175.953 349.603 180.337 349.603 185.376Z" stroke="#F1B104" stroke-width="3" stroke-miterlimit="10"/>
    <path d="M345.873 175.538H347.713C349.296 175.538 350.815 176.194 351.936 177.364C353.057 178.533 353.689 180.119 353.692 181.774V184.506C353.692 185.776 353.209 186.995 352.349 187.894C351.49 188.793 350.324 189.298 349.108 189.299V189.299" stroke="#F1B104" stroke-width="3" stroke-miterlimit="10"/>
    <path d="M149.84 304.259C149.84 304.259 150.569 252.378 173.742 221.6C173.742 221.6 161.789 239.09 157.949 304.259H149.84Z" fill="#948900"/>
    <path d="M154.584 304.259C154.584 304.259 159.787 248.742 131.964 227.973C131.964 227.973 154.755 249.671 144.972 304.259H154.584Z" fill="#948900"/>
    <path d="M151.541 303.473C151.541 303.473 151.366 253.927 126.139 242.159C126.139 242.159 151.366 261.328 143.233 303.492L151.541 303.473Z" fill="#948900"/>
    <path d="M147.279 304.259C147.279 304.259 141.354 248.86 160.385 229.481C160.385 229.481 149.839 251.424 154.583 304.259H147.279Z" fill="#B0A81F"/>
    <path d="M153.564 304.259C153.564 304.259 153.564 260.823 177.449 252.694C177.449 252.694 158.092 274.782 160.972 304.259H153.564Z" fill="#B0A81F"/>
    <path d="M141.76 304.26C141.76 304.26 145.185 281.149 127.781 270.791C127.781 270.791 148.092 275.464 147.28 304.26H141.76Z" fill="#B0A81F"/>
    <path d="M162.269 303.99H140.468C138.259 303.99 136.468 305.862 136.468 308.171V330.956C136.468 333.265 138.259 335.137 140.468 335.137H162.269C164.478 335.137 166.269 333.265 166.269 330.956V308.171C166.269 305.862 164.478 303.99 162.269 303.99Z" fill="white" stroke="#F1B104" stroke-width="3" stroke-miterlimit="10"/>
</svg>
