<svg width="336" height="447" viewBox="0 0 336 447" fill="none" xmlns="http://www.w3.org/2000/svg">
<path d="M82.334 353.398C82.2262 373.358 90.5914 400.247 95.8332 408.652C99.3114 414.238 100.084 408.334 100.045 407.455C99.5375 396.435 102.08 375.274 98.9532 353.398H82.334Z" fill="#B57E6F"/>
<path d="M99.6352 358.95C94.0456 360.338 87.5725 360.996 82.6821 361.298C82.4433 358.673 82.3272 356.036 82.3343 353.398H98.9534C99.2178 355.253 99.4438 357.107 99.6352 358.95Z" fill="#3A193F"/>
<path d="M110.793 417.993H95.6178C95.5552 417.411 95.5343 416.824 95.5552 416.238H110.793C110.842 416.822 110.842 417.409 110.793 417.993Z" fill="white"/>
<path d="M110.793 416.238H95.6176C95.6176 416.238 95.5933 416.108 95.5689 415.882C95.4298 414.67 95.1689 410.717 97.4298 409.061C99.2733 407.711 103.531 408.334 107.232 409.543C110.932 410.751 110.793 416.238 110.793 416.238Z" fill="#84ABD6"/>
<path d="M50.0034 353.398C50.2921 356.377 58.7165 405.669 56.4904 407.799C54.2643 409.929 62.4939 408.969 62.786 407.799C63.0782 406.629 73.3426 378.203 68.6991 353.398H50.0034Z" fill="#B57E6F"/>
<path d="M68.6917 353.398C69.19 356.083 69.5292 358.801 69.7073 361.535C61.4013 361.654 55.203 360.77 50.9665 359.768C50.4239 356.327 50.0586 353.983 49.9995 353.398H68.6917Z" fill="#3A193F"/>
<path d="M65.4466 417.993H44.191C44.0548 417.421 44.017 416.825 44.0797 416.238H65.391C65.4292 416.792 65.4466 417.373 65.4466 417.993Z" fill="white"/>
<path d="M65.2554 416.238H44.191C44.1677 416.075 44.1549 415.91 44.1528 415.745C44.118 414.598 44.4171 411.638 48.038 410.246C50.7928 409.188 53.6189 408.37 56.4902 407.799C56.4902 407.799 58.7893 409.022 62.7858 407.799C62.7858 407.799 64.9632 410.246 65.2554 416.238Z" fill="#84ABD6"/>
<path d="M46.4208 307.868C46.3442 309.241 43.826 349.486 43.899 354.675C43.899 354.675 52.4034 359.225 70.9216 358.747L70.6294 344.141C70.6294 344.141 73.826 358.74 75.2034 358.786C76.5808 358.832 94.7442 358.671 104.911 354.518C104.911 354.518 99.186 317.875 95.6938 308.824L46.4208 307.868Z" fill="#A1CBE2"/>
<path d="M70.6294 344.141C70.1946 342.229 68.8137 336.493 68.8137 336.493L65.3911 335.671" stroke="#32323C" stroke-width="3" stroke-linecap="round" stroke-linejoin="round"/>
<path d="M80.6053 221.703C82.0558 222.98 87.7705 226.8 89.2245 228.517C91.5097 231.224 105.687 247.253 105.687 247.253C105.687 247.253 100.817 257.264 90.4732 261.401C90.4732 261.401 92.2749 279.756 97.9375 307.18C99.6766 315.542 44.9671 309.738 44.3723 307.18C43.7775 304.622 46.5949 273.007 48.894 260.824C48.894 260.824 33.9375 253.31 33.9375 246.523C33.9375 246.523 48.894 230.36 49.7775 229.4C50.661 228.44 56.5984 224.143 60.5601 222.33C64.5219 220.518 80.6053 221.703 80.6053 221.703Z" fill="#FFF4DE"/>
<path d="M90.4731 261.413C91.7101 264.03 93.5611 266.235 95.8343 267.801C98.1075 269.367 100.72 270.236 103.402 270.319C113.892 270.812 131.023 255.884 131.023 255.884C131.023 255.884 136.466 255.643 137.771 254.285C139.075 252.928 140.967 250.137 141.04 249.418C141.113 248.699 140.303 243.682 140.303 243.682C140.303 243.682 138.95 243.896 138.852 246.558C138.786 248.313 136.052 249.341 134.866 248.852C134.063 248.527 134.028 247.609 135.256 246.718C136.908 245.518 135.774 243.835 135.774 243.835C134.975 244.41 134.126 244.894 133.238 245.28C132.268 245.628 130.431 247.242 130.219 247.575C129.59 248.557 128.845 251.215 128.845 251.215C128.845 251.215 115.76 253.624 106.219 255.261L102.897 251.59C102.897 251.59 97.6036 258.541 90.4731 261.413Z" fill="#B57E6F"/>
<path d="M104.275 253.134C104.275 253.134 98.0138 260.017 96.3964 268.188C93.8756 266.618 91.822 264.28 90.4834 261.455C90.4821 261.446 90.4821 261.437 90.4834 261.428C97.6138 258.556 102.908 251.612 102.908 251.612L104.275 253.134Z" fill="#3A193F"/>
<path d="M25.4645 301.838C24.4941 302.603 19.9306 305.949 19.2315 307.394C18.5324 308.84 18.7654 312.748 18.8837 313.157C19.0019 313.566 19.7463 315.704 19.7463 315.704C19.9384 315.626 20.1147 315.507 20.2649 315.354C20.4151 315.201 20.5364 315.017 20.6217 314.812C20.707 314.607 20.7547 314.386 20.7621 314.161C20.7694 313.936 20.7363 313.712 20.6645 313.501C20.0976 311.547 21.6454 309.429 22.6472 308.587C23.0645 308.236 24.2611 308.079 24.5985 308.779C24.9359 309.478 23.3706 310.886 23.1863 311.513C23.116 311.819 23.1151 312.14 23.1836 312.448C23.2521 312.755 23.388 313.039 23.5793 313.275C23.5793 313.275 25.948 310.981 26.4037 310.549C26.8593 310.117 28.8385 306.113 29.1237 303.284C29.4089 300.454 27.7115 300.11 25.4645 301.838Z" fill="#B57E6F"/>
<path d="M38.2091 253.636C38.2091 253.636 33.0439 262.947 31.5065 269.868C29.9691 276.789 24.4352 302.079 24.3482 302.722C24.2613 303.364 27.8265 304.53 28.8978 303.681C29.9691 302.833 42.7135 277.336 43.8961 274.93C45.8961 270.873 48.8943 260.832 48.8943 260.832C48.8943 260.832 41.1413 256.454 38.2091 253.636Z" fill="#B57E6F"/>
<path d="M48.894 260.836L48.8592 260.951L47.1444 266.365L47.1201 266.438C47.1201 266.438 44.1879 259.142 36.6157 256.706C37.5409 254.84 38.2088 253.647 38.2088 253.647C41.1409 256.454 48.894 260.836 48.894 260.836Z" fill="#3A193F"/>
<path d="M77.4088 212.22C77.4088 212.22 76.8279 216.808 80.6053 221.722C80.6053 221.722 69.2732 228.643 60.5566 222.36C60.5566 222.36 64.9149 219.596 64.5288 212.461L77.4088 212.22Z" fill="#B57E6F"/>
<path d="M77.5167 214.675C74.8941 217.695 70.2576 221.014 63.2559 219.099C64.2639 217.065 64.7077 214.75 64.5324 212.442L77.4019 212.201C77.3364 213.027 77.3751 213.86 77.5167 214.675Z" fill="#3A193F"/>
<path d="M77.4436 212.415C88.3236 213.088 90.8662 200.997 90.3827 200.179C89.8992 199.361 88.3514 194.443 86.9044 191.025C85.4575 187.606 82.1044 186.983 82.1044 186.983C82.1044 186.983 82.2018 181.37 72.6644 179.293C60.9079 176.735 49.2801 184.761 54.6783 191.006C53.5375 192.918 48.8836 199.242 56.0696 208.595C58.327 211.505 69.9723 213.187 77.4436 212.415Z" fill="#3A193F"/>
<path d="M82.1045 186.983C82.1045 186.983 83.868 185.71 86.4175 186.777" stroke="#40465C" stroke-width="3" stroke-linecap="round" stroke-linejoin="round"/>
<path d="M63.3042 216.808C54.9564 212.985 55.819 199.131 57.3634 193.281C65.6034 198.458 79.586 194.344 79.586 194.344C78.0382 201.265 81.2034 203.444 81.2034 203.444C81.2034 203.444 83.9408 201.016 84.9321 202.649C86.4208 205.104 81.9129 207.75 81.1477 208.178C81.1477 208.178 74.8799 222.112 63.3042 216.808Z" fill="#B57E6F"/>
<path d="M180.946 175.286C178.466 194.714 155.207 233.522 153.238 236.703C151.047 240.26 147.172 237.774 148.202 233.059C149.374 227.706 155.631 183.71 161.684 171.374C168.237 137.58 184.905 97.0398 189.903 92.3748C197.207 85.557 202.797 87.5301 204.136 104.469C205.465 121.275 188.72 162.434 180.946 175.286Z" fill="#B57E6F"/>
<path d="M195.291 143.204C194.48 145.43 193.642 147.64 192.79 149.8C192.79 149.8 174.038 136.849 172.616 131.446C173.005 130.307 173.396 129.18 173.788 128.066C181.732 136.524 194.588 140.478 194.588 140.478C194.852 141.384 195.082 142.29 195.291 143.204Z" fill="#3A193F"/>
<path d="M150.306 229.721C148.567 230.394 140.504 233.327 138.922 235.158C137.339 236.99 136.198 242.94 136.23 243.594C136.261 244.248 136.557 247.8 136.557 247.8C136.557 247.8 138.845 247.605 138.755 244.932C138.647 241.762 141.753 239.315 143.565 238.516C144.32 238.187 146.164 238.493 146.404 239.693C146.644 240.894 143.777 242.271 143.273 243.135C142.487 244.439 143.19 245.942 143.19 245.942C143.19 245.942 147.586 243.609 148.431 243.165C149.277 242.722 153.718 237.663 155.221 233.606C156.724 229.549 154.31 228.172 150.306 229.721Z" fill="#B57E6F"/>
<path d="M239.753 283.495C240.327 288.849 245.468 303.761 247.057 310.006C250.737 324.333 265.69 386.531 270.188 402.296C275.777 421.893 278.536 410.346 278.536 403.061C278.536 395.777 288.184 347.456 282.181 323.442C278.936 310.442 272.591 297.62 272.035 275.45L239.753 283.495Z" fill="#B57E6F"/>
<path d="M272.142 278.203C260.869 285.254 248.696 288.271 241.096 289.56C240.769 288.175 239.857 284.478 239.753 283.491L272.038 275.435C272.061 276.373 272.096 277.295 272.142 278.203Z" fill="#3A193F"/>
<path d="M282.849 367.159C281.193 384.118 278.539 399.218 278.539 403.046C278.539 410.345 275.788 421.893 270.191 402.281C268.393 395.975 264.918 382.229 261.165 367.102C262.445 367.565 270.838 370.234 282.849 367.159Z" fill="white"/>
<path d="M247.075 416.238C247.075 416.238 245.436 410.326 250.769 408.208C254.967 406.537 266.974 403.543 268.449 398.492C268.449 398.492 271.269 401.482 278.981 399.233C278.981 399.233 285.092 405.734 283.795 415.901L247.075 416.238Z" fill="#F1B104"/>
<path d="M274.122 400.136C274.195 399.425 274.254 391.513 271.969 390.259C269.683 389.005 264.473 390.183 264.616 391.513C264.758 392.844 267.433 399.364 268.094 399.543C268.755 399.723 274.122 400.136 274.122 400.136Z" fill="#F1B104"/>
<path d="M284.118 415.943H246.81C246.272 415.943 245.836 416.423 245.836 417.014V417.408C245.836 417.999 246.272 418.479 246.81 418.479H284.118C284.656 418.479 285.092 417.999 285.092 417.408V417.014C285.092 416.423 284.656 415.943 284.118 415.943Z" fill="white"/>
<path d="M269.217 406.113C269.217 406.113 268.132 401.842 265.864 401.83C263.082 401.83 262.539 403.574 262.539 403.574" stroke="white" stroke-width="3" stroke-linecap="round" stroke-linejoin="round"/>
<path d="M264.647 407.868C264.647 407.868 264.007 403.819 261.75 403.589C261.069 403.499 260.38 403.613 259.754 403.92C259.129 404.227 258.591 404.716 258.198 405.333" stroke="white" stroke-width="3" stroke-linecap="round" stroke-linejoin="round"/>
<path d="M223.509 286.933C222.814 288.764 180.031 276.643 180.894 272.337C181.346 270.085 193.655 270.123 204.939 273.817C215.221 277.182 224.654 283.981 223.509 286.933Z" fill="#32323C"/>
<path d="M188.605 271.618C186.581 272.1 186.682 287.17 188.605 306.239C190.529 325.308 194.814 396.644 192.028 401.589C189.242 406.533 202.522 402.296 202.953 399.707C203.384 397.119 221.089 355.864 217.523 330.172C213.875 303.883 219.485 286.233 220.306 283.407C221.127 280.581 203.541 268.047 188.605 271.618Z" fill="#B57E6F"/>
<path d="M220.32 283.407C220.111 284.118 219.6 285.766 219.009 288.259C208.348 276.964 195.169 274.983 187.43 274.93C187.673 272.915 188.063 271.737 188.605 271.607C203.541 268.047 221.155 280.577 220.32 283.407Z" fill="#3A193F"/>
<path d="M213.701 366.41C213.702 366.417 213.702 366.425 213.701 366.433C209.343 383.51 203.204 398.193 202.953 399.7C202.525 402.288 189.249 406.525 192.035 401.581C193.294 399.34 193.106 383.46 192.341 364.991C192.348 364.999 198.376 369.262 213.701 366.41Z" fill="white"/>
<path d="M168.991 416.237C168.991 416.237 167.353 410.326 172.685 408.207C176.883 406.536 191.172 403.542 192.647 398.491C192.647 398.491 195.471 401.481 203.179 399.233C203.179 399.233 208.32 407.599 207.082 415.901L168.991 416.237Z" fill="#F1B104"/>
<path d="M196.038 400.136C196.111 399.424 196.171 391.513 193.885 390.259C191.6 389.005 188.668 390.182 188.818 391.513C188.967 392.844 191.631 399.363 192.296 399.543C192.96 399.723 196.038 400.136 196.038 400.136Z" fill="#F1B104"/>
<path d="M207.405 415.943H168.727C168.189 415.943 167.753 416.422 167.753 417.014V417.407C167.753 417.999 168.189 418.478 168.727 418.478H207.405C207.943 418.478 208.379 417.999 208.379 417.407V417.014C208.379 416.422 207.943 415.943 207.405 415.943Z" fill="white"/>
<path d="M189.531 406.613C189.531 406.613 189.131 401.589 186.863 401.581C184.08 401.581 184.682 404.074 184.682 404.074" stroke="white" stroke-width="3" stroke-linecap="round" stroke-linejoin="round"/>
<path d="M184.282 408.621C184.282 408.621 183.878 403.596 181.614 403.588C178.831 403.588 179.43 406.085 179.43 406.085" stroke="white" stroke-width="3" stroke-linecap="round" stroke-linejoin="round"/>
<path d="M195.211 195.609C192.028 205.345 190.529 212.537 187.746 237.965C185.183 261.371 181.106 267.63 180.894 272.337C180.894 272.337 207.235 266.686 223.51 286.933L229.165 272.337L233.506 283.992C233.506 283.992 258.202 286.933 282.184 268.804C282.184 268.804 274.696 259.86 272.501 240.126C270.226 219.684 267.005 205.551 263.033 197.154C259.061 188.757 196.306 192.252 195.211 195.609Z" fill="#A1CBE2"/>
<path d="M229.165 272.337C227.795 267.393 222.209 241.965 221.37 241.261C220.532 240.558 214.957 237.021 214.957 237.021" stroke="#174B64" stroke-width="3" stroke-linecap="round" stroke-linejoin="round"/>
<path d="M265.548 203.547C261.322 200.894 249.2 196.08 221.496 201.941C202.202 206.018 196.066 201.559 194.337 198.362C194.612 197.456 194.904 196.542 195.21 195.609C196.306 192.252 259.061 188.757 263.037 197.158C263.998 199.226 264.837 201.36 265.548 203.547Z" fill="#3A193F"/>
<path d="M267.798 277.45L266.498 277.928C266.4 277.607 264.063 269.791 261.28 247.884C258.678 227.37 253.252 199.242 252.584 195.724C253.071 195.705 253.534 195.69 253.976 195.682C254.849 200.206 260.101 227.576 262.651 247.686C265.391 269.405 267.774 277.373 267.798 277.45Z" fill="white"/>
<path d="M263.917 278.957L262.609 279.435C262.511 279.113 260.174 271.298 257.391 249.391C254.842 229.282 249.579 200.6 248.727 195.988C249.2 195.942 249.659 195.904 250.118 195.87C251.068 201.024 256.237 229.286 258.762 249.185C261.506 270.911 263.892 278.88 263.917 278.957Z" fill="white"/>
<path d="M247.652 78.4829C253.941 80.9148 264.588 85.3925 268.324 88.4515C272.059 91.5105 289.746 115.983 289.746 115.983C289.746 115.983 281.976 133.886 264.198 140.715C264.198 140.715 256.703 160.449 263.659 197.433C263.659 197.433 258.807 191.697 222.571 200.978C197.711 207.348 191.833 195.104 191.986 193.219C192.139 191.334 201.357 164.495 194.595 140.478C194.595 140.478 176.212 134.83 169.826 122.586C169.826 122.586 180.807 97.3494 186.219 92.5544C191.631 87.7594 206.268 83.19 211.353 81.4655C216.438 79.7409 247.652 78.4829 247.652 78.4829Z" fill="#3A193F"/>
<path d="M263.155 195.304C264.32 201.07 284.939 196.982 277.586 173.126C270.233 149.269 264.132 141.056 264.132 141.056C264.132 141.056 257.527 167.447 263.155 195.304Z" fill="#F1B104"/>
<path d="M260.038 82.8691C256.32 92.4018 248.497 118.885 263.454 162.021L261.102 174.54C261.102 174.54 237.975 137.45 251.763 80.5863C252.501 77.5464 260.038 82.8691 260.038 82.8691Z" fill="#F1B104"/>
<path d="M211.36 81.7026C198.414 105.636 202.382 158.786 196.869 167.447C196.869 167.447 188.657 108.775 200.261 86.0464C202.487 81.6987 212.842 78.9647 211.36 81.7026Z" fill="#F1B104"/>
<path d="M248.497 78.9839C248.497 78.9839 229.509 91.1664 213.217 80.9646C213.217 80.9646 222.261 75.4239 223.447 65.4133C223.457 65.3565 223.464 65.299 223.468 65.2412C223.468 65.1227 223.492 65.0003 223.503 64.8818C223.506 64.8449 223.506 64.8077 223.503 64.7709C223.527 64.4956 223.544 64.2202 223.555 63.9411C223.555 63.5893 223.555 63.2299 223.555 62.8628H223.576L240.348 58.6069C240.348 58.6069 240.327 59.8955 240.49 61.8418C240.897 66.7172 242.476 75.7298 248.497 78.9839Z" fill="#B57E6F"/>
<path d="M240.695 64.6217C236.521 75.3283 225.634 74.1812 221.259 72.3802C222.408 70.2423 223.156 67.8736 223.461 65.4133C223.471 65.3565 223.478 65.299 223.481 65.2412C223.481 65.1227 223.509 65.0041 223.516 64.8818C223.52 64.8449 223.52 64.8077 223.516 64.7709C223.541 64.4956 223.558 64.2202 223.568 63.9411C223.582 63.5842 223.582 63.2248 223.568 62.8628L240.347 58.6069C240.347 58.6069 240.532 62.6754 240.695 64.6217Z" fill="#3A193F"/>
<path d="M241.979 59.0353C241.671 60.4844 241.1 61.85 240.299 63.0503C239.395 64.4153 239.044 65.203 238.261 65.769C236.212 67.2488 225.437 71.2026 221.217 64.6218C219.238 61.536 218.087 49.7091 219.037 40.3332C220.052 30.3149 238.884 34.6587 241.993 43.3157C243.924 48.734 242.783 55.33 241.979 59.0353Z" fill="#B57E6F"/>
<path d="M231.433 39.8133C230.692 39.9204 218.518 43.0062 214.626 37.7638C210.734 32.5214 216.543 27.6193 222.317 28.2349C222.317 28.2349 222.734 23.1187 229.753 21.6045C236.831 20.075 239.941 23.2066 239.969 26.1204C239.969 26.1204 245.03 23.9293 248.811 27.2675C252.591 30.6056 251.137 33.1638 250.977 36.5631C250.817 39.9624 253.193 39.0677 253.176 42.62C253.155 46.4093 249.451 46.4132 246.445 53.8734C245.294 56.7412 243.263 57.9801 243.183 56.6647C243.103 55.3493 243.023 55.1811 242.518 54.4393C242.014 53.6975 239.767 49.6022 239.583 44.0195C239.398 38.4368 237.972 38.8765 231.433 39.8133Z" fill="#3A193F"/>
<path d="M238.08 38.7729C234.932 39.0177 225.638 45.0172 216.104 40.8913" stroke="#3A193F" stroke-width="3" stroke-linecap="round" stroke-linejoin="round"/>
<path d="M242.835 57.8961C245.438 57.8961 247.548 55.5764 247.548 52.7149C247.548 49.8534 245.438 47.5337 242.835 47.5337C240.232 47.5337 238.122 49.8534 238.122 52.7149C238.122 55.5764 240.232 57.8961 242.835 57.8961Z" fill="#B57E6F"/>
<path d="M254.125 142.103C254.125 142.103 267.141 171.871 286.362 177.523C292.786 179.408 299.029 173.699 299.645 161.597C300.261 149.495 285.342 123.508 285.342 123.508C273.93 137.932 264.198 140.715 264.198 140.715L258.939 137.744L254.125 142.103Z" fill="#B57E6F"/>
<path d="M252.386 141.27C250.623 140.164 245.454 133.752 244.633 131.362C243.812 128.972 244.807 122.334 245.064 121.753C245.322 121.172 246.828 117.589 246.828 117.589C247.317 118.112 247.671 118.769 247.854 119.491C248.037 120.214 248.043 120.977 247.871 121.703C247.526 123.154 247.529 124.679 247.88 126.128C248.23 127.578 248.916 128.903 249.871 129.974C250.452 130.62 253.384 130.945 254.024 129.974C254.664 129.003 253.155 126.433 252.981 125.424C252.713 123.894 253.885 122.835 253.885 122.835L257.739 127.741C258.365 128.529 259.13 135.159 259.103 139.541C259.075 143.923 256.129 143.617 252.386 141.27Z" fill="#B57E6F"/>
<path d="M288.292 128.965C288.139 129.179 278.553 142.486 269.245 143.587L264.198 140.715C264.198 140.715 273.937 137.935 285.339 123.508V123.543L285.357 123.573L288.23 128.862V128.885L288.292 128.965Z" fill="#3A193F"/>
<path d="M269.016 142.838C269.016 142.838 280.89 148.279 285.84 153.388" stroke="#9E2923" stroke-width="2" stroke-linecap="round" stroke-linejoin="round"/>
<path d="M229.614 44.4972C229.614 44.4972 231.37 43.4151 233.902 45.2008" stroke="#3A193F" stroke-width="3" stroke-linecap="round" stroke-linejoin="round"/>
<path d="M231.998 48.7945C232.029 48.0434 231.626 47.4135 231.098 47.3874C230.57 47.3614 230.117 47.9491 230.087 48.7002C230.056 49.4512 230.459 50.0812 230.987 50.1072C231.515 50.1333 231.967 49.5455 231.998 48.7945Z" fill="#3A193F"/>
<path d="M223.302 48.7964C223.332 48.0454 222.929 47.4154 222.402 47.3894C221.874 47.3633 221.421 47.9511 221.39 48.7021C221.36 49.4532 221.763 50.0831 222.291 50.1092C222.818 50.1352 223.271 49.5475 223.302 48.7964Z" fill="#3A193F"/>
<path d="M226.16 48.8296L225.812 55.7162L227.93 56.5613" stroke="#3A193F" stroke-width="3" stroke-linecap="round" stroke-linejoin="round"/>
<path d="M231.332 57.9302C231.332 57.9302 230.125 60.6871 227.944 60.3812" stroke="#3A193F" stroke-width="3" stroke-linecap="round" stroke-linejoin="round"/>
<path d="M69.8887 197.59C69.8887 197.59 71.6278 196.508 74.1739 198.29" stroke="#3A193F" stroke-width="3" stroke-linecap="round" stroke-linejoin="round"/>
<path d="M58.0869 197.689C58.0869 197.689 59.6208 196.259 62.4173 197.475" stroke="#3A193F" stroke-width="3" stroke-linecap="round" stroke-linejoin="round"/>
<path d="M72.2674 202.272C72.2981 201.52 71.8951 200.891 71.3674 200.865C70.8396 200.838 70.387 201.426 70.3563 202.177C70.3256 202.928 70.7286 203.558 71.2563 203.584C71.7841 203.61 72.2368 203.023 72.2674 202.272Z" fill="#3A193F"/>
<path d="M61.139 201.506C61.1697 200.755 60.7667 200.125 60.239 200.099C59.7112 200.073 59.2586 200.661 59.2279 201.412C59.1972 202.163 59.6002 202.793 60.1279 202.819C60.6557 202.845 61.1083 202.257 61.139 201.506Z" fill="#3A193F"/>
<path d="M64.6954 206.293C64.3725 206.293 64.0629 206.152 63.8346 205.901C63.6063 205.65 63.478 205.309 63.478 204.955C63.478 204.6 63.6063 204.259 63.8346 204.008C64.0629 203.757 64.3725 203.616 64.6954 203.616" stroke="#3A193F" stroke-width="3" stroke-linecap="round" stroke-linejoin="round"/>
<path d="M64.522 210.882C64.522 210.882 67.6524 211.577 70.2681 209.509" stroke="#3A193F" stroke-width="3" stroke-linecap="round" stroke-linejoin="round"/>
</svg>
