<svg width="663" height="384" viewBox="0 0 663 384" fill="none" xmlns="http://www.w3.org/2000/svg">
<path d="M66.2026 277.971C97.8735 176.886 241.132 131.969 284.26 157.246C327.387 182.523 323.183 220.664 376.911 216.591C430.639 212.517 444.379 149.369 504.175 166.776C563.972 184.182 585.201 276.986 585.201 276.986" fill="#D6EAF2"/>
<path d="M130.459 50.2681V275.767" stroke="#F1B104" stroke-width="3" stroke-miterlimit="10"/>
<path d="M180.908 75.7158V77.0298C180.908 80.9197 179.382 84.6502 176.666 87.4008C173.95 90.1514 170.266 91.6966 166.425 91.6966H157.56C155.667 91.6966 153.852 92.458 152.514 93.8133C151.176 95.1686 150.424 97.0067 150.424 98.9233" stroke="#F1B104" stroke-width="3" stroke-miterlimit="10"/>
<path d="M166.425 91.7064H194.904C197.037 91.707 199.14 91.1959 201.041 90.215C202.941 89.2341 204.585 87.8112 205.838 86.063" stroke="#F1B104" stroke-width="3" stroke-miterlimit="10"/>
<path d="M117.514 50.2583V81.1787C117.512 85.3188 118.316 89.4187 119.879 93.2441C121.442 97.0695 123.735 100.545 126.626 103.473V103.473C127.841 104.704 128.806 106.166 129.463 107.774C130.121 109.383 130.46 111.107 130.46 112.848" stroke="#F1B104" stroke-width="3" stroke-miterlimit="10"/>
<path d="M150.482 75.7158V96.1903C150.483 101.543 149.392 106.837 147.278 111.743C145.165 116.649 142.074 121.06 138.199 124.7L137.754 125.117C135.454 127.278 133.618 129.897 132.363 132.809C131.107 135.722 130.459 138.866 130.459 142.044" stroke="#F1B104" stroke-width="3" stroke-miterlimit="10"/>
<path d="M100.138 64.5537V121.516C100.138 130.041 101.9 138.471 105.311 146.264C108.723 154.057 113.707 161.041 119.944 166.765V166.765C123.256 169.805 125.902 173.513 127.714 177.651C129.525 181.788 130.46 186.265 130.46 190.791" stroke="#F1B104" stroke-width="3" stroke-miterlimit="10"/>
<path d="M70.1958 50.0771C70.1958 64.0969 79.0088 72.792 89.8815 72.792H100.138" stroke="#F1B104" stroke-width="3" stroke-miterlimit="10"/>
<path d="M91.0884 109.839V124.476C91.0884 127.264 92.1819 129.938 94.1285 131.909C96.0751 133.88 98.7152 134.988 101.468 134.988H101.62" stroke="#F1B104" stroke-width="3" stroke-miterlimit="10"/>
<path d="M92.8296 130.307H78.5121C72.7578 130.307 67.2392 127.992 63.1702 123.871C59.1013 119.751 56.8154 114.162 56.8154 108.334" stroke="#F1B104" stroke-width="3" stroke-miterlimit="10"/>
<path d="M160.703 159.949V167.12C160.703 177.759 156.529 187.962 149.101 195.485L137.771 206.946C133.091 211.687 130.462 218.115 130.459 224.819" stroke="#F1B104" stroke-width="3" stroke-miterlimit="10"/>
<path d="M172.338 157.627C172.338 160.621 171.164 163.493 169.073 165.61C166.982 167.728 164.147 168.917 161.19 168.917H160.661" stroke="#F1B104" stroke-width="3" stroke-miterlimit="10"/>
<path d="M166.075 157.775H190.629C190.629 157.775 195.705 154.01 191.398 149.717C188.605 146.935 184.083 148.689 184.083 148.689C184.083 148.689 188.894 132.701 173.879 131.042C158.864 129.384 155.971 142.06 158.29 147.519C160.609 152.979 128.773 140.036 124.981 155.403C124.692 156.572 135.088 158.031 145.004 156.474C145.004 156.474 148.179 166.516 159.36 164.614C167.207 163.293 166.075 157.775 166.075 157.775Z" fill="#99C9E5"/>
<path d="M60.5784 109.028H32.1123C32.1123 109.028 31.5349 94.4363 71.9669 99.6986C71.9669 99.6986 73.1086 85.2255 94.7664 85.958C116.424 86.6906 116.152 109.448 115.286 109.984C114.42 110.519 95.4995 109.984 95.4995 109.984C95.4995 109.984 93.2938 121.093 75.483 121.093C63.8448 121.093 60.5784 109.028 60.5784 109.028Z" fill="#99C9E5"/>
<path d="M193.13 75.8798H144.041C139.62 75.8798 136.214 71.777 137.142 67.3983C137.648 65.0037 139.373 62.7995 143.603 61.8404C152.685 59.7939 157.898 62.9868 157.898 62.9868C157.898 62.9868 149.662 40.3574 177.392 40.3442C203.095 40.3442 200.305 57.4649 199.919 60.2308C199.293 64.7113 217.649 55.5367 228.028 67.2341C238.408 78.9315 219.978 90.146 209.29 87.4655C198.602 84.7851 193.13 75.8798 193.13 75.8798Z" fill="#99C9E5"/>
<path d="M115.665 50.5866H155.105C155.105 50.5866 158.754 44.0169 151.174 40.8141C143.593 37.6114 127.012 41.2018 127.012 41.2018C127.012 41.2018 128.124 17.1204 105.792 18.8154C85.5255 20.3528 86.7549 37.0267 86.7549 37.0267C86.7549 37.0267 66.6897 31.8629 50.1699 44.5622C47.3382 46.7433 48.6551 49.9986 52.2134 49.9986C56.8907 49.9986 73.709 50.1793 73.709 50.1793C73.709 50.1793 78.4609 66.932 99.7067 64.8232C114.644 63.345 115.665 50.5866 115.665 50.5866Z" fill="#99C9E5"/>
<path d="M164.556 52.0025C165.542 52.0025 166.34 51.1936 166.34 50.1958C166.34 49.198 165.542 48.3892 164.556 48.3892C163.571 48.3892 162.772 49.198 162.772 50.1958C162.772 51.1936 163.571 52.0025 164.556 52.0025Z" stroke="white" stroke-width="3" stroke-linecap="round" stroke-linejoin="round"/>
<path d="M81.847 33.1701C82.8019 33.1701 83.5759 32.3862 83.5759 31.4193C83.5759 30.4523 82.8019 29.6685 81.847 29.6685C80.8922 29.6685 80.1182 30.4523 80.1182 31.4193C80.1182 32.3862 80.8922 33.1701 81.847 33.1701Z" stroke="#99C9E5" stroke-width="3" stroke-linecap="round" stroke-linejoin="round"/>
<path d="M50.3999 116.258C51.7847 116.258 52.9072 115.121 52.9072 113.718C52.9072 112.316 51.7847 111.179 50.3999 111.179C49.0152 111.179 47.8926 112.316 47.8926 113.718C47.8926 115.121 49.0152 116.258 50.3999 116.258Z" stroke="#99C9E5" stroke-width="3" stroke-linecap="round" stroke-linejoin="round"/>
<path d="M152.468 144.166C153.453 144.166 154.252 143.357 154.252 142.359C154.252 141.361 153.453 140.552 152.468 140.552C151.482 140.552 150.684 141.361 150.684 142.359C150.684 143.357 151.482 144.166 152.468 144.166Z" stroke="#99C9E5" stroke-width="3" stroke-linecap="round" stroke-linejoin="round"/>
<path d="M97.676 33.1703C99.5857 33.1703 101.134 31.6026 101.134 29.6687C101.134 27.7347 99.5857 26.167 97.676 26.167C95.7663 26.167 94.2183 27.7347 94.2183 29.6687C94.2183 31.6026 95.7663 33.1703 97.676 33.1703Z" stroke="white" stroke-width="3" stroke-linecap="round" stroke-linejoin="round"/>
<path d="M203.509 71.5276C205.41 71.5276 206.951 69.9672 206.951 68.0424C206.951 66.1175 205.41 64.5571 203.509 64.5571C201.609 64.5571 200.068 66.1175 200.068 68.0424C200.068 69.9672 201.609 71.5276 203.509 71.5276Z" stroke="white" stroke-width="3" stroke-linecap="round" stroke-linejoin="round"/>
<path d="M108.088 105.267C109.521 105.267 110.683 104.09 110.683 102.639C110.683 101.187 109.521 100.011 108.088 100.011C106.655 100.011 105.493 101.187 105.493 102.639C105.493 104.09 106.655 105.267 108.088 105.267Z" stroke="white" stroke-width="3" stroke-linecap="round" stroke-linejoin="round"/>
<path d="M152.467 161.014C153.901 161.014 155.062 159.837 155.062 158.386C155.062 156.934 153.901 155.758 152.467 155.758C151.034 155.758 149.873 156.934 149.873 158.386C149.873 159.837 151.034 161.014 152.467 161.014Z" stroke="white" stroke-width="3" stroke-linecap="round" stroke-linejoin="round"/>
<path d="M106.684 26.387C107.352 26.387 107.893 25.8385 107.893 25.1618C107.893 24.4851 107.352 23.9365 106.684 23.9365C106.015 23.9365 105.474 24.4851 105.474 25.1618C105.474 25.8385 106.015 26.387 106.684 26.387Z" stroke="white" stroke-width="3" stroke-linecap="round" stroke-linejoin="round"/>
<path d="M196.231 60.356C196.92 60.356 197.48 59.7898 197.48 59.0913C197.48 58.3929 196.92 57.8267 196.231 57.8267C195.541 57.8267 194.982 58.3929 194.982 59.0913C194.982 59.7898 195.541 60.356 196.231 60.356Z" stroke="white" stroke-width="3" stroke-linecap="round" stroke-linejoin="round"/>
<path d="M100.137 104.777C100.827 104.777 101.386 104.211 101.386 103.512C101.386 102.814 100.827 102.248 100.137 102.248C99.4478 102.248 98.8887 102.814 98.8887 103.512C98.8887 104.211 99.4478 104.777 100.137 104.777Z" stroke="white" stroke-width="3" stroke-linecap="round" stroke-linejoin="round"/>
<path d="M44.5515 106.531C45.2412 106.531 45.8003 105.965 45.8003 105.266C45.8003 104.568 45.2412 104.001 44.5515 104.001C43.8618 104.001 43.3027 104.568 43.3027 105.266C43.3027 105.965 43.8618 106.531 44.5515 106.531Z" stroke="white" stroke-width="3" stroke-linecap="round" stroke-linejoin="round"/>
<path d="M213.432 277.696C224.46 277.696 323.608 280.701 305.707 305.945C287.805 331.189 61.292 327.297 61.292 327.297V347.739H611.102L604.29 338.298C604.29 338.298 441.907 327.829 468.223 299.336C485.437 280.701 371.815 277.328 342.204 277.328C312.593 277.328 213.432 277.696 213.432 277.696Z" fill="#D6EAF2"/>
<path d="M229.618 292.96C238.365 292.96 245.456 291.745 245.456 290.247C245.456 288.748 238.365 287.534 229.618 287.534C220.87 287.534 213.779 288.748 213.779 290.247C213.779 291.745 220.87 292.96 229.618 292.96Z" stroke="#CDE8EC" stroke-width="3" stroke-linecap="round" stroke-linejoin="round"/>
<path d="M256.991 299.802C260.319 299.802 263.017 299.102 263.017 298.239C263.017 297.375 260.319 296.675 256.991 296.675C253.662 296.675 250.964 297.375 250.964 298.239C250.964 299.102 253.662 299.802 256.991 299.802Z" stroke="#CDE8EC" stroke-width="3" stroke-linecap="round" stroke-linejoin="round"/>
<path d="M491.295 281.963H607.155" stroke="#CDE8EC" stroke-width="3" stroke-linecap="round" stroke-linejoin="round"/>
<path d="M486.66 81.4184C500.292 81.4184 511.344 70.2265 511.344 56.4206C511.344 42.6147 500.292 31.4229 486.66 31.4229C473.027 31.4229 461.976 42.6147 461.976 56.4206C461.976 70.2265 473.027 81.4184 486.66 81.4184Z" fill="#FFBA00"/>
<path d="M520.306 133.079C503.828 129.574 502.599 140.578 502.599 140.578H623.625C625.114 123.77 604.115 127.153 604.115 127.153C604.115 127.153 606.561 115.101 588 110.995C569.44 106.889 559.625 118.222 561.169 127.518C561.169 127.518 552.466 115.6 537.945 120.248C526.78 123.822 538.237 131.483 535.888 134.196C533.472 136.978 528.674 134.859 520.306 133.079Z" fill="white" stroke="#CDE8EC" stroke-width="3" stroke-linecap="round" stroke-linejoin="round"/>
<path d="M334.53 119.973H236.825C236.825 119.973 237.957 110.053 252.462 113.351C271.957 117.782 280.435 114.783 279.385 108.424C278.022 100.211 286.686 90.2123 303.063 93.8388C319.44 97.4653 317.293 108.105 317.293 108.105C317.293 108.105 335.843 105.116 334.53 119.973Z" fill="white" stroke="#CDE8EC" stroke-width="3" stroke-linecap="round" stroke-linejoin="round"/>
<path d="M253.753 125.866H301.899" stroke="#CDE8EC" stroke-width="3" stroke-linecap="round" stroke-linejoin="round"/>
<path d="M397.323 64.1042H487.289C487.289 64.1042 486.167 54.2496 471.765 57.5344C452.407 61.9329 451.035 57.5344 452.082 51.2275C453.435 43.0811 444.83 31.7187 428.559 35.3157C412.289 38.9126 415.835 58.0436 415.835 58.0436C415.835 58.0436 399.941 54.2561 397.323 64.1042Z" fill="white" stroke="#CDE8EC" stroke-width="3" stroke-linecap="round" stroke-linejoin="round"/>
<path d="M440.502 68.8408H488.648" stroke="#CDE8EC" stroke-width="3" stroke-linecap="round" stroke-linejoin="round"/>
<path d="M655.715 276.993C655.715 276.993 655.39 247.987 625.143 249.357C625.143 249.357 615.318 185.394 559.392 178.897C491.366 170.994 478.054 247.222 478.054 247.222C478.054 247.222 413.564 227.713 405.29 276.993H655.715Z" fill="#F9C543"/>
<path d="M655.715 276.993C655.715 276.993 655.39 247.987 625.143 249.357C625.143 249.357 615.318 185.394 559.392 178.897C491.366 170.994 478.054 247.222 478.054 247.222C478.054 247.222 413.564 227.713 405.29 276.993H655.715Z" stroke="#D3A000" stroke-width="3" stroke-linecap="round" stroke-linejoin="round"/>
<path d="M553.634 178.42C553.634 178.42 531.937 236.89 550.358 276.992" stroke="#D3A000" stroke-width="3" stroke-linecap="round" stroke-linejoin="round"/>
<path d="M567.637 180.339C567.637 180.339 561.766 225.653 543.31 248.102" stroke="#D3A000" stroke-width="3" stroke-linecap="round" stroke-linejoin="round"/>
<path d="M539.154 179.087C539.154 179.087 533.481 203.747 544.244 218.578" stroke="#D3A000" stroke-width="3" stroke-linecap="round" stroke-linejoin="round"/>
<path d="M584.478 186.81C584.478 186.81 574.166 214.34 558.205 219.429" stroke="#D3A000" stroke-width="3" stroke-linecap="round" stroke-linejoin="round"/>
<path d="M607.533 207.64C607.533 207.64 558.454 230.634 552.599 276.993" stroke="#D3A000" stroke-width="3" stroke-linecap="round" stroke-linejoin="round"/>
<path d="M592.697 192.214C592.697 192.214 584.942 202.338 588.221 219.964" stroke="#D3A000" stroke-width="3" stroke-linecap="round" stroke-linejoin="round"/>
<path d="M562.061 249.242C573.414 232.013 611.575 236.76 615.581 220.963" stroke="#D3A000" stroke-width="3" stroke-linecap="round" stroke-linejoin="round"/>
<path d="M622.205 237.518C622.205 237.518 610.765 241.743 594.764 233.741" stroke="#D3A000" stroke-width="3" stroke-linecap="round" stroke-linejoin="round"/>
<path d="M625.143 249.357C620.252 249.623 600.456 256.945 598.221 276.992" stroke="#D3A000" stroke-width="3" stroke-linecap="round" stroke-linejoin="round"/>
<path d="M636.204 250.415C636.204 250.415 625.416 256.597 627.122 276.992" stroke="#D3A000" stroke-width="3" stroke-linecap="round" stroke-linejoin="round"/>
<path d="M643.863 253.844C643.863 253.844 641.229 269.677 626.95 273.337" stroke="#D3A000" stroke-width="3" stroke-linecap="round" stroke-linejoin="round"/>
<path d="M622.205 249.925C622.205 249.925 622.529 261.501 627.777 264.467" stroke="#D3A000" stroke-width="3" stroke-linecap="round" stroke-linejoin="round"/>
<path d="M604.18 262.132C604.18 262.132 620.005 259.74 624.433 276.999" stroke="#D3A000" stroke-width="3" stroke-linecap="round" stroke-linejoin="round"/>
<path d="M601.141 266.967C601.141 266.967 609.681 269.204 615.568 264.467" stroke="#D3A000" stroke-width="3" stroke-linecap="round" stroke-linejoin="round"/>
<path d="M650.46 260.489C650.46 260.489 638.673 263.567 639.188 276.989C639.188 276.989 640.395 268.971 646.418 268.797C652.442 268.623 652.257 276.989 652.257 276.989" stroke="#D3A000" stroke-width="3" stroke-linecap="round" stroke-linejoin="round"/>
<path d="M542.943 237.069C542.943 219.964 511.107 207.639 514.295 188.476" stroke="#D3A000" stroke-width="3" stroke-linecap="round" stroke-linejoin="round"/>
<path d="M493.584 209.545C493.584 209.545 502.764 218.148 522.875 208.779" stroke="#D3A000" stroke-width="3" stroke-linecap="round" stroke-linejoin="round"/>
<path d="M524.467 183.111C524.467 183.111 534.441 184.668 538.895 206.089" stroke="#D3A000" stroke-width="3" stroke-linecap="round" stroke-linejoin="round"/>
<path d="M487.068 220.963C487.068 220.963 511.795 232.535 506.631 276.993" stroke="#D3A000" stroke-width="3" stroke-linecap="round" stroke-linejoin="round"/>
<path d="M511.623 212.771C511.623 212.771 519.599 241.073 506.66 254.675" stroke="#D3A000" stroke-width="3" stroke-linecap="round" stroke-linejoin="round"/>
<path d="M483.779 228.37C483.779 228.37 486.339 235.728 498.895 232.476" stroke="#D3A000" stroke-width="3" stroke-linecap="round" stroke-linejoin="round"/>
<path d="M515.927 276.993C515.927 276.993 512.829 259.212 527.633 259.212C542.437 259.212 542.943 276.993 542.943 276.993" stroke="#D3A000" stroke-width="3" stroke-linecap="round" stroke-linejoin="round"/>
<path d="M514.055 233.741C519.028 234.454 540.938 240.813 545.648 263.176" stroke="#D3A000" stroke-width="3" stroke-linecap="round" stroke-linejoin="round"/>
<path d="M478.054 247.238C483.779 249.242 498.541 259.56 500.607 276.993" stroke="#D3A000" stroke-width="3" stroke-linecap="round" stroke-linejoin="round"/>
<path d="M479.604 276.993C479.604 276.993 474.226 259.044 478.55 244.87" stroke="#D3A000" stroke-width="3" stroke-linecap="round" stroke-linejoin="round"/>
<path d="M455.842 243.572C455.842 243.572 467.379 249.097 463.422 276.992" stroke="#D3A000" stroke-width="3" stroke-linecap="round" stroke-linejoin="round"/>
<path d="M469.981 245.346C469.981 245.346 471.1 259.425 464.25 263.59" stroke="#D3A000" stroke-width="3" stroke-linecap="round" stroke-linejoin="round"/>
<path d="M573.942 276.993C574.114 272.111 578.863 250.116 615.568 252.658" stroke="#D3A000" stroke-width="3" stroke-linecap="round" stroke-linejoin="round"/>
<path d="M435.014 245.346C435.014 245.346 444.164 261.061 460.678 248.979" stroke="#D3A000" stroke-width="3" stroke-linecap="round" stroke-linejoin="round"/>
<path d="M443.107 276.993C443.107 276.993 437.424 271.241 427.44 272.286C417.456 273.33 416.25 276.993 416.25 276.993" stroke="#D3A000" stroke-width="3" stroke-linecap="round" stroke-linejoin="round"/>
<path d="M460.046 276.993C460.046 276.993 457.396 264.208 443.967 265.982C430.538 267.756 430.194 276.993 430.194 276.993" stroke="#D3A000" stroke-width="3" stroke-linecap="round" stroke-linejoin="round"/>
<path d="M52.7578 347.729H191.17C191.858 323.204 162.951 324.83 162.951 324.83C162.951 324.83 162.484 293.489 120.946 286.243C103.605 283.221 45.8716 286.2 52.7578 347.729Z" fill="#F9C543"/>
<path d="M52.7578 347.729H191.17C191.858 323.204 162.951 324.83 162.951 324.83C162.951 324.83 162.484 293.489 120.946 286.243C103.605 283.221 45.8716 286.2 52.7578 347.729Z" stroke="#D3A000" stroke-width="3" stroke-linecap="round" stroke-linejoin="round"/>
<path d="M116.693 285.711C116.693 285.711 102.746 314.427 115.136 347.729" stroke="#D3A000" stroke-width="3" stroke-linecap="round" stroke-linejoin="round"/>
<path d="M105.493 285.628C105.493 285.628 103.248 301.563 110.481 309.913" stroke="#D3A000" stroke-width="3" stroke-linecap="round" stroke-linejoin="round"/>
<path d="M130.693 288.591C130.693 288.591 124.818 312.196 110.164 324.216" stroke="#D3A000" stroke-width="3" stroke-linecap="round" stroke-linejoin="round"/>
<path d="M141.925 293.417C141.925 293.417 130.449 307.926 122.363 308.997" stroke="#D3A000" stroke-width="3" stroke-linecap="round" stroke-linejoin="round"/>
<path d="M85.2622 289.587C85.2622 289.587 88.788 318.369 110.482 327.993" stroke="#D3A000" stroke-width="3" stroke-linecap="round" stroke-linejoin="round"/>
<path d="M58.168 311.553C58.168 311.553 73.9321 296.475 93.1571 311.553" stroke="#D3A000" stroke-width="3" stroke-linecap="round" stroke-linejoin="round"/>
<path d="M113.141 341.655C113.141 321.499 154.186 319.509 154.371 303.807" stroke="#D3A000" stroke-width="3" stroke-linecap="round" stroke-linejoin="round"/>
<path d="M146.723 296.531C146.723 296.531 140.45 302.372 145.357 315.114" stroke="#D3A000" stroke-width="3" stroke-linecap="round" stroke-linejoin="round"/>
<path d="M162.938 324.83C159.37 325.063 140.787 332.385 140.443 347.729" stroke="#D3A000" stroke-width="3" stroke-linecap="round" stroke-linejoin="round"/>
<path d="M169.02 347.729C167.469 345.101 156.198 320.938 126.369 324.83" stroke="#D3A000" stroke-width="3" stroke-linecap="round" stroke-linejoin="round"/>
<path d="M172.542 325.71C172.542 325.71 172.691 337.621 162.938 338.577" stroke="#D3A000" stroke-width="3" stroke-linecap="round" stroke-linejoin="round"/>
<path d="M138.033 324.83C138.033 324.83 134.631 331.009 141.926 340.85" stroke="#D3A000" stroke-width="3" stroke-linecap="round" stroke-linejoin="round"/>
<path d="M122.363 347.729C122.363 347.729 122.363 341.511 127.877 341.655C133.391 341.8 133.761 347.729 133.761 347.729" stroke="#D3A000" stroke-width="3" stroke-linecap="round" stroke-linejoin="round"/>
<path d="M105.165 347.729C105.165 347.729 99.6509 327.083 79.8452 327.993C60.0395 328.903 58.168 347.729 58.168 347.729" stroke="#D3A000" stroke-width="3" stroke-linecap="round" stroke-linejoin="round"/>
<path d="M100.329 347.729C100.329 347.729 97.7341 338.249 87.4194 337.845C77.1046 337.441 77.0884 347.729 77.0884 347.729" stroke="#D3A000" stroke-width="3" stroke-linecap="round" stroke-linejoin="round"/>
<path d="M80.7663 305.42C80.7663 305.42 76.5755 319.745 85.8718 328.414" stroke="#D3A000" stroke-width="3" stroke-linecap="round" stroke-linejoin="round"/>
<path d="M73.4845 304.94C73.4845 304.94 70.7988 323.799 53.0269 327.133" stroke="#D3A000" stroke-width="3" stroke-linecap="round" stroke-linejoin="round"/>
<path d="M94.0816 287.156C94.0816 287.156 97.8734 297.773 87.9771 300.585" stroke="#D3A000" stroke-width="3" stroke-linecap="round" stroke-linejoin="round"/>
<path d="M187.768 334.776C187.768 334.776 179.866 335.348 182.792 347.729" stroke="#D3A000" stroke-width="3" stroke-linecap="round" stroke-linejoin="round"/>
<path d="M93.1572 278.044C93.1572 278.044 111.75 272.7 125.753 259.682C137.718 248.556 147.329 235.045 162.477 235.272C177.625 235.499 179.464 251.312 179.464 251.312C179.464 251.312 186.577 238.064 206.548 243.175C226.519 248.286 214.813 264.152 223.993 264.652C233.172 265.151 260.26 250.615 260.26 278.044H93.1572Z" fill="#99C9E5"/>
<path d="M180.868 278.674C211.884 249.925 207.015 223.249 207.015 223.249C173.606 240.353 179.14 278.159 179.14 278.159" stroke="white" stroke-width="3" stroke-linecap="round" stroke-linejoin="round"/>
<path d="M182.617 278.159C182.617 278.159 187.232 256.899 167.608 250.274C147.984 243.648 177.952 278.159 177.952 278.159" stroke="white" stroke-width="3" stroke-linecap="round" stroke-linejoin="round"/>
<path d="M228.19 257.96C229.575 257.96 230.697 256.823 230.697 255.421C230.697 254.019 229.575 252.882 228.19 252.882C226.805 252.882 225.683 254.019 225.683 255.421C225.683 256.823 226.805 257.96 228.19 257.96Z" stroke="#99C9E5" stroke-width="3" stroke-linecap="round" stroke-linejoin="round"/>
<path d="M62.1709 204.387C62.1709 204.387 59.7414 247.695 62.9721 266.336" stroke="#F1B104" stroke-width="3" stroke-miterlimit="10"/>
<path d="M69.1899 209.876C69.1899 209.876 68.713 218.003 61.7295 219.862" stroke="#F1B104" stroke-width="3" stroke-miterlimit="10"/>
<path d="M49.3032 218.841C49.3032 218.841 52.615 234.868 61.3047 242.094" stroke="#F1B104" stroke-width="3" stroke-miterlimit="10"/>
<path d="M43.5781 220.815C43.5781 220.815 46.598 225.437 51.285 225.683" stroke="#F1B104" stroke-width="3" stroke-miterlimit="10"/>
<path d="M56.8838 209.446C56.8838 209.446 58.3337 214.59 61.7038 215.31" stroke="#F1B104" stroke-width="3" stroke-miterlimit="10"/>
<path d="M62.2261 204.735C65.859 204.735 68.8042 201.753 68.8042 198.074C68.8042 194.395 65.859 191.412 62.2261 191.412C58.5931 191.412 55.6479 194.395 55.6479 198.074C55.6479 201.753 58.5931 204.735 62.2261 204.735Z" fill="#F9C543"/>
<path d="M69.3165 211.095C70.5096 211.095 71.4768 210.116 71.4768 208.907C71.4768 207.699 70.5096 206.72 69.3165 206.72C68.1234 206.72 67.1562 207.699 67.1562 208.907C67.1562 210.116 68.1234 211.095 69.3165 211.095Z" fill="#F9C543"/>
<path d="M56.5367 210.609C57.59 210.609 58.4439 209.744 58.4439 208.678C58.4439 207.611 57.59 206.746 56.5367 206.746C55.4833 206.746 54.6294 207.611 54.6294 208.678C54.6294 209.744 55.4833 210.609 56.5367 210.609Z" fill="#F9C543"/>
<path d="M43.2308 222.162C44.1856 222.162 44.9597 221.378 44.9597 220.411C44.9597 219.444 44.1856 218.66 43.2308 218.66C42.276 218.66 41.502 219.444 41.502 220.411C41.502 221.378 42.276 222.162 43.2308 222.162Z" fill="#F9C543"/>
<path d="M49.1445 219.13C51.373 219.13 53.1795 217.3 53.1795 215.043C53.1795 212.787 51.373 210.957 49.1445 210.957C46.9159 210.957 45.1094 212.787 45.1094 215.043C45.1094 217.3 46.9159 219.13 49.1445 219.13Z" fill="#F9C543"/>
<path d="M48.168 278.158C48.168 278.158 24.6127 271.605 29.4619 260.607C32.3293 254.1 50.1174 271.881 50.1174 271.881C50.1174 271.881 33.8214 254.471 36.4617 222.493C36.4617 222.493 56.0079 236.549 62.972 259.33C62.972 259.33 66.8643 225.972 80.7633 214.35C80.7633 214.35 84.0913 222.02 79.8454 247.126C79.8454 247.126 93.8449 231.086 102.797 226.787C102.797 226.787 97.1729 250.148 89.2552 261.074C89.2552 261.074 98.5515 256.308 102.797 263.63C107.043 270.951 93.1573 277.695 93.1573 277.695L48.168 278.158Z" fill="#AEA61F"/>
<path d="M36.9775 223.545C36.9775 223.545 52.2972 266.77 62.1676 277.696" stroke="#9F9300" stroke-width="3" stroke-linecap="round" stroke-linejoin="round"/>
<path d="M80.5882 215.228C80.5882 215.228 70.0074 271.218 66.2026 277.797" stroke="#9F9300" stroke-width="3" stroke-linecap="round" stroke-linejoin="round"/>
<path d="M101.76 228.012C101.76 228.012 80.0726 267.907 68.9404 277.614" stroke="#9F9300" stroke-width="3" stroke-linecap="round" stroke-linejoin="round"/>
<path d="M102.068 262.549C102.068 262.549 88.1199 275.271 78.123 277.676" stroke="#9F9300" stroke-width="3" stroke-linecap="round" stroke-linejoin="round"/>
<path d="M29.8057 260.608C29.8057 260.608 41.739 274.496 53.8086 277.633" stroke="#9F9300" stroke-width="3" stroke-linecap="round" stroke-linejoin="round"/>
<path d="M48.168 277.633H93.1572" stroke="#9F9300" stroke-width="3" stroke-linecap="round" stroke-linejoin="round"/>
<path d="M621.387 344.184C621.387 344.184 644.943 337.615 640.093 326.633C637.226 320.126 619.435 337.907 619.435 337.907C619.435 337.907 635.734 320.497 633.094 288.519C633.094 288.519 613.544 302.575 606.583 325.356C606.583 325.356 602.691 291.998 588.792 280.376C588.792 280.376 585.464 288.046 589.71 313.152C589.71 313.152 575.71 297.112 566.758 292.812C566.758 292.812 572.382 316.174 580.3 327.1C580.3 327.1 571.004 322.333 566.758 329.655C562.512 336.977 576.398 343.721 576.398 343.721L621.387 344.184Z" fill="#AEA61F"/>
<path d="M632.574 289.57C632.574 289.57 617.255 332.796 607.384 343.721" stroke="#9F9300" stroke-width="3" stroke-linecap="round" stroke-linejoin="round"/>
<path d="M588.967 281.253C588.967 281.253 599.545 337.243 603.349 343.823" stroke="#9F9300" stroke-width="3" stroke-linecap="round" stroke-linejoin="round"/>
<path d="M567.796 294.038C567.796 294.038 589.483 333.932 600.615 343.639" stroke="#9F9300" stroke-width="3" stroke-linecap="round" stroke-linejoin="round"/>
<path d="M567.488 328.575C567.488 328.575 581.435 341.297 591.432 343.685" stroke="#9F9300" stroke-width="3" stroke-linecap="round" stroke-linejoin="round"/>
<path d="M639.749 326.633C639.749 326.633 627.813 340.522 615.747 343.659" stroke="#9F9300" stroke-width="3" stroke-linecap="round" stroke-linejoin="round"/>
<path d="M621.387 343.659H576.398" stroke="#9F9300" stroke-width="3" stroke-linecap="round" stroke-linejoin="round"/>
<path d="M458.544 347.729C458.544 347.729 459.193 319.768 483.497 319.66C500.714 319.581 505.525 327.849 505.525 327.849C505.525 327.849 488.658 299.27 519.823 292.809C550.988 286.348 558.192 324.741 572.182 328.548C586.272 332.385 619.892 317.856 611.235 347.729H458.544Z" fill="#99C9E5"/>
<path d="M537.533 348.711C509.874 333.384 513.345 306.366 513.345 306.366C541.107 315.057 538.704 348.021 538.704 348.021" stroke="white" stroke-width="3" stroke-linecap="round" stroke-linejoin="round"/>
<path d="M536.173 348.648C536.173 348.648 531.726 332.842 547.374 325.625C561.49 319.114 539.57 347.804 539.57 347.804" stroke="white" stroke-width="3" stroke-linecap="round" stroke-linejoin="round"/>
<path d="M492.663 314.529C494.286 314.529 495.602 313.196 495.602 311.553C495.602 309.909 494.286 308.577 492.663 308.577C491.04 308.577 489.725 309.909 489.725 311.553C489.725 313.196 491.04 314.529 492.663 314.529Z" stroke="#99C9E5" stroke-width="3" stroke-linecap="round" stroke-linejoin="round"/>
<path d="M620.603 334.13C621.987 334.13 623.11 332.993 623.11 331.59C623.11 330.188 621.987 329.051 620.603 329.051C619.218 329.051 618.095 330.188 618.095 331.59C618.095 332.993 619.218 334.13 620.603 334.13Z" stroke="#99C9E5" stroke-width="3" stroke-linecap="round" stroke-linejoin="round"/>
<path d="M473.513 335.075C475.413 335.075 476.954 333.515 476.954 331.59C476.954 329.665 475.413 328.105 473.513 328.105C471.612 328.105 470.071 329.665 470.071 331.59C470.071 333.515 471.612 335.075 473.513 335.075Z" stroke="white" stroke-width="3" stroke-linecap="round" stroke-linejoin="round"/>
<path d="M264.318 308.815C264.233 323.354 270.844 342.935 274.989 349.055C277.746 353.125 278.35 348.825 278.317 348.184C277.918 340.16 279.939 324.75 277.458 308.815H264.318Z" fill="#B57E6F"/>
<path d="M277.98 312.859C273.562 313.871 268.447 314.347 264.581 314.57C264.39 312.658 264.298 310.737 264.305 308.815H277.445C277.661 310.169 277.84 311.517 277.98 312.859Z" fill="#3A193F"/>
<path d="M286.816 355.861H274.815C274.767 355.436 274.751 355.008 274.766 354.58H286.813C286.854 355.006 286.855 355.435 286.816 355.861V355.861Z" fill="white"/>
<path d="M286.816 354.58H274.814C274.814 354.58 274.814 354.485 274.779 354.321C274.665 353.44 274.454 350.559 276.248 349.354C277.704 348.368 281.071 348.825 283.997 349.705C286.923 350.586 286.816 354.58 286.816 354.58Z" fill="#84ABD6"/>
<path d="M238.758 308.815C238.988 310.987 245.647 346.884 243.886 348.434C242.125 349.984 248.631 349.288 248.862 348.434C249.092 347.58 257.208 326.882 253.533 308.815H238.758Z" fill="#B57E6F"/>
<path d="M253.533 308.815C253.927 310.767 254.195 312.742 254.334 314.728C247.769 314.817 242.871 314.163 239.52 313.444C239.092 310.944 238.8 309.229 238.755 308.802L253.533 308.815Z" fill="#3A193F"/>
<path d="M250.967 355.861H234.165C234.056 355.444 234.026 355.009 234.074 354.58H250.941C250.951 354.981 250.967 355.421 250.967 355.861Z" fill="white"/>
<path d="M250.814 354.58H234.164C234.145 354.462 234.134 354.342 234.132 354.222C234.106 353.371 234.339 351.23 237.203 350.218C239.381 349.448 241.615 348.851 243.885 348.434C243.885 348.434 245.705 349.328 248.861 348.434C248.861 348.434 250.587 350.218 250.814 354.58Z" fill="#84ABD6"/>
<path d="M235.926 275.662C235.865 276.647 233.873 305.968 233.931 309.745C233.931 309.745 240.655 313.063 255.297 312.702L255.064 302.062C255.064 302.062 257.591 312.695 258.68 312.728C259.77 312.761 274.127 312.646 282.168 309.62C282.168 309.62 277.626 282.934 274.879 276.342L235.926 275.662Z" fill="#A1CBE2"/>
<path d="M255.064 302.072C254.72 300.676 253.63 296.488 253.63 296.488L250.931 295.906" stroke="#32323C" stroke-width="3" stroke-linecap="round" stroke-linejoin="round"/>
<path d="M262.949 212.908C264.097 213.841 268.615 216.62 269.76 217.871C271.567 219.842 282.774 231.517 282.774 231.517C282.774 231.517 278.933 238.809 270.75 241.828C270.75 241.828 272.174 255.204 276.653 275.169C278.019 281.256 234.774 277.028 234.317 275.169C233.86 273.31 236.072 250.28 237.885 241.407C237.885 241.407 226.052 235.935 226.052 230.991C226.052 230.991 237.885 219.222 238.573 218.509C239.26 217.796 243.967 214.679 247.103 213.361C250.24 212.044 262.949 212.908 262.949 212.908Z" fill="#FFF4DE"/>
<path d="M270.75 241.828C271.729 243.734 273.193 245.34 274.99 246.48C276.788 247.62 278.854 248.253 280.974 248.313C289.265 248.674 302.807 237.801 302.807 237.801C302.807 237.801 307.111 237.627 308.146 236.638C309.181 235.649 310.669 233.616 310.741 233.09C310.812 232.565 310.16 228.912 310.16 228.912C310.16 228.912 309.087 229.07 309.012 231.008C308.96 232.286 306.8 233.035 305.859 232.686C305.21 232.45 305.21 231.78 306.184 231.133C306.357 231.032 306.507 230.894 306.624 230.729C306.74 230.564 306.821 230.376 306.859 230.177C306.898 229.978 306.894 229.773 306.848 229.576C306.802 229.379 306.715 229.194 306.592 229.034C305.962 229.452 305.291 229.804 304.591 230.085C303.822 230.338 302.369 231.514 302.2 231.754C301.704 232.473 301.117 234.408 301.117 234.408C301.117 234.408 290.77 236.162 283.228 237.364L280.575 234.68C280.575 234.68 276.387 239.736 270.75 241.828Z" fill="#B57E6F"/>
<path d="M281.662 235.787C281.662 235.787 276.712 240.797 275.434 246.752C273.44 245.61 271.816 243.907 270.76 241.848V241.828C276.397 239.736 280.585 234.68 280.585 234.68L281.662 235.787Z" fill="#3A193F"/>
<path d="M219.358 271.267C218.589 271.813 214.982 274.263 214.431 275.314C213.879 276.365 214.061 279.22 214.158 279.512C214.255 279.805 214.842 281.365 214.842 281.365C214.995 281.309 215.134 281.222 215.253 281.111C215.372 281 215.468 280.866 215.535 280.716C215.602 280.567 215.64 280.406 215.645 280.242C215.65 280.078 215.623 279.915 215.566 279.762C215.118 278.34 216.341 276.806 217.136 276.181C217.46 275.928 218.41 275.814 218.676 276.323C218.942 276.832 217.703 277.857 217.561 278.313C217.507 278.538 217.508 278.773 217.564 278.997C217.621 279.22 217.731 279.427 217.885 279.598L220.117 277.627C220.477 277.298 222.034 274.398 222.267 272.348C222.501 270.298 221.135 270.016 219.358 271.267Z" fill="#B57E6F"/>
<path d="M229.432 236.182C229.432 236.182 225.358 242.962 224.135 248.007C222.913 253.053 218.547 271.471 218.469 271.934C218.391 272.397 221.226 273.248 222.066 272.634C222.906 272.019 232.994 253.447 233.928 251.699C235.508 248.743 237.882 241.431 237.882 241.431C237.882 241.431 231.752 238.215 229.432 236.182Z" fill="#B57E6F"/>
<path d="M237.882 241.408L237.853 241.49L236.497 245.432L236.478 245.485C236.478 245.485 234.162 240.17 228.174 238.396C228.907 237.039 229.432 236.162 229.432 236.162C231.752 238.215 237.882 241.408 237.882 241.408Z" fill="#3A193F"/>
<path d="M260.422 205.991C260.422 205.991 259.965 209.345 262.949 212.909C262.949 212.909 253.993 217.951 247.101 213.376C247.101 213.376 250.549 211.359 250.24 206.149L260.422 205.991Z" fill="#B57E6F"/>
<path d="M260.507 207.79C258.437 209.991 254.772 212.389 249.232 211.013C250.028 209.531 250.379 207.845 250.241 206.164L260.422 205.987C260.37 206.589 260.399 207.196 260.507 207.79Z" fill="#3A193F"/>
<path d="M260.464 206.144C269.063 206.634 271.078 197.83 270.695 197.249C270.312 196.668 269.073 193.061 267.941 190.581C266.809 188.101 264.149 187.624 264.149 187.624C264.149 187.624 264.227 183.538 256.689 182.04C247.393 180.174 238.2 186.018 242.469 190.581C241.567 191.977 237.889 196.579 243.578 203.392C245.339 205.481 254.545 206.706 260.464 206.144Z" fill="#3A193F"/>
<path d="M264.136 187.611C264.136 187.611 265.531 186.685 267.545 187.46" stroke="#40465C" stroke-width="3" stroke-linecap="round" stroke-linejoin="round"/>
<path d="M249.274 209.344C242.673 206.558 243.357 196.47 244.577 192.21C251.09 195.981 262.144 192.982 262.144 192.982C260.922 198.024 263.422 199.611 263.422 199.611C263.422 199.611 265.589 197.843 266.371 199.033C267.548 200.82 263.987 202.748 263.38 203.06C263.383 203.06 258.424 213.207 249.274 209.344Z" fill="#B57E6F"/>
<path d="M342.278 179.104C340.332 193.255 321.921 221.518 320.371 223.834C318.639 226.422 315.577 224.612 316.391 221.179C317.315 217.274 322.262 185.24 327.05 176.256C332.239 151.642 345.405 122.121 349.356 118.725C355.13 113.758 359.551 115.197 360.611 127.531C361.666 139.771 348.422 169.745 342.278 179.104Z" fill="#B57E6F"/>
<path d="M353.619 155.738C352.97 157.361 352.321 158.971 351.64 160.544C351.64 160.544 336.817 151.113 335.694 147.181C336.001 146.349 336.31 145.528 336.619 144.718C342.898 150.88 353.061 153.758 353.061 153.758C353.266 154.415 353.452 155.075 353.619 155.738Z" fill="#3A193F"/>
<path d="M318.052 218.748C316.686 219.238 310.306 221.376 309.054 222.71C307.802 224.044 306.9 228.373 306.926 228.849C306.952 229.326 307.173 231.911 307.173 231.911C307.423 231.89 307.666 231.82 307.889 231.703C308.112 231.587 308.31 231.427 308.472 231.233C308.633 231.039 308.755 230.814 308.831 230.572C308.906 230.33 308.934 230.075 308.911 229.822C308.827 227.522 311.283 225.729 312.716 225.151C313.31 224.908 314.769 225.151 314.958 226.008C315.146 226.865 312.882 227.884 312.476 228.505C311.857 229.454 312.411 230.548 312.411 230.548C312.411 230.548 315.889 228.849 316.557 228.528C317.225 228.206 320.734 224.52 321.925 221.56C323.115 218.601 321.218 217.619 318.052 218.748Z" fill="#B57E6F"/>
<path d="M388.767 257.907C389.221 261.813 393.285 272.689 394.55 277.216C397.469 287.652 409.279 332.947 412.834 344.427C417.255 358.7 419.432 350.291 419.432 344.976C419.432 339.661 427.058 304.48 422.312 286.991C419.747 277.528 414.732 268.186 414.291 252.041L388.767 257.907Z" fill="#B57E6F"/>
<path d="M414.372 254.054C405.458 259.178 395.841 261.386 389.83 262.325C389.571 261.317 388.857 258.627 388.767 257.907L414.291 252.041C414.31 252.724 414.337 253.395 414.372 254.054Z" fill="#3A193F"/>
<path d="M422.838 318.838C421.54 331.189 419.432 342.187 419.432 344.976C419.432 350.291 417.255 358.7 412.834 344.427C411.414 339.828 408.666 329.826 405.698 318.805C406.707 319.134 413.343 321.078 422.838 318.838Z" fill="white"/>
<path d="M394.556 354.58C394.556 354.58 393.259 350.277 397.476 348.733C400.794 347.518 410.288 345.337 411.453 341.658C411.453 341.658 413.684 343.836 419.779 342.196C421.262 343.811 422.373 345.738 423.032 347.84C423.691 349.942 423.88 352.165 423.587 354.35L394.556 354.58Z" fill="#F1B104"/>
<path d="M415.938 342.854C415.997 342.335 416.042 336.576 414.236 335.663C412.429 334.75 408.313 335.604 408.423 336.576C408.533 337.549 410.651 342.295 411.174 342.417C411.696 342.538 415.938 342.854 415.938 342.854Z" fill="#F1B104"/>
<path d="M423.84 354.367H394.349C393.922 354.367 393.577 354.717 393.577 355.149V355.432C393.577 355.863 393.922 356.213 394.349 356.213H423.84C424.266 356.213 424.612 355.863 424.612 355.432V355.149C424.612 354.717 424.266 354.367 423.84 354.367Z" fill="white"/>
<path d="M412.059 347.21C412.059 347.21 411.199 344.099 409.406 344.092C407.203 344.092 406.778 345.364 406.778 345.364" stroke="white" stroke-width="3" stroke-linecap="round" stroke-linejoin="round"/>
<path d="M408.449 348.487C408.449 348.487 407.943 345.531 406.159 345.37C405.621 345.303 405.075 345.386 404.581 345.61C404.086 345.833 403.66 346.188 403.35 346.638" stroke="white" stroke-width="3" stroke-linecap="round" stroke-linejoin="round"/>
<path d="M375.938 260.414C375.377 261.747 341.556 252.917 342.243 249.784C342.603 248.141 352.334 248.171 361.254 250.861C369.373 253.312 376.83 258.262 375.938 260.414Z" fill="#32323C"/>
<path d="M348.331 249.262C346.732 249.613 346.81 260.585 348.331 274.473C349.853 288.361 353.233 340.311 351.04 343.925C348.847 347.538 359.334 344.437 359.674 342.552C360.015 340.666 374.011 310.623 371.192 291.912C368.309 272.768 372.746 259.914 373.405 257.855C374.063 255.795 360.138 246.663 348.331 249.262Z" fill="#B57E6F"/>
<path d="M373.405 257.861C373.239 258.38 372.834 259.582 372.367 261.396C363.933 253.183 353.521 251.725 347.391 251.699C347.582 250.227 347.89 249.373 348.318 249.278C360.141 246.663 374.063 255.785 373.405 257.861Z" fill="#3A193F"/>
<path d="M368.173 318.303V318.322C364.731 330.756 359.875 341.451 359.681 342.551C359.356 344.437 348.844 347.525 351.046 343.925C352.042 342.282 351.893 330.726 351.29 317.274C351.286 317.265 356.054 320.369 368.173 318.303Z" fill="white"/>
<path d="M332.827 354.58C332.827 354.58 331.53 350.277 335.746 348.733C339.064 347.518 350.362 345.337 351.527 341.658C351.527 341.658 353.758 343.836 359.853 342.196C359.853 342.196 363.917 348.293 362.938 354.35L332.827 354.58Z" fill="#F1B104"/>
<path d="M354.205 342.854C354.264 342.335 354.309 336.576 352.503 335.663C350.696 334.75 348.383 335.604 348.497 336.576C348.61 337.549 350.722 342.295 351.244 342.417C351.766 342.538 354.205 342.854 354.205 342.854Z" fill="#F1B104"/>
<path d="M363.19 354.367H332.619C332.193 354.367 331.847 354.717 331.847 355.149V355.432C331.847 355.863 332.193 356.213 332.619 356.213H363.19C363.617 356.213 363.962 355.863 363.962 355.432V355.149C363.962 354.717 363.617 354.367 363.19 354.367Z" fill="white"/>
<path d="M349.064 347.574C349.064 347.574 348.74 343.915 346.956 343.908C344.753 343.908 345.23 345.725 345.23 345.725" stroke="white" stroke-width="3" stroke-linecap="round" stroke-linejoin="round"/>
<path d="M344.913 349.036C344.913 349.036 344.588 345.377 342.804 345.37C340.602 345.37 341.079 347.187 341.079 347.187" stroke="white" stroke-width="3" stroke-linecap="round" stroke-linejoin="round"/>
<path d="M353.557 193.905C351.043 200.994 349.856 206.233 347.657 224.75C345.63 241.795 342.409 246.354 342.237 249.784C342.237 249.784 363.064 245.668 375.932 260.414L380.398 249.784L383.83 258.272C383.83 258.272 403.357 260.414 422.316 247.212C422.316 247.212 416.393 240.698 414.658 226.33C412.861 211.443 410.318 201.148 407.175 195.032C404.031 188.915 354.42 191.461 353.557 193.905Z" fill="#A1CBE2"/>
<path d="M380.395 249.784C379.312 246.17 374.91 227.667 374.232 227.151C373.554 226.635 369.152 224.066 369.152 224.066" stroke="#174B64" stroke-width="3" stroke-linecap="round" stroke-linejoin="round"/>
<path d="M409.16 199.686C405.819 197.755 396.244 194.25 374.336 198.517C359.091 201.473 354.226 198.225 352.863 195.909C353.081 195.252 353.311 194.595 353.554 193.905C354.42 191.461 404.032 188.915 407.172 195.032C407.934 196.538 408.598 198.093 409.16 199.686Z" fill="#3A193F"/>
<path d="M410.937 253.509L409.912 253.857C409.834 253.624 407.966 247.944 405.783 231.973C403.723 217.034 399.435 196.549 398.894 193.987C399.276 193.987 399.643 193.964 399.996 193.961C400.687 197.246 404.839 217.185 406.853 231.826C409.023 247.649 410.921 253.45 410.937 253.509Z" fill="white"/>
<path d="M407.868 254.603L406.843 254.954C406.765 254.718 404.897 249.041 402.714 233.071C400.697 218.427 396.551 197.538 395.86 194.181C396.233 194.148 396.597 194.119 396.95 194.096C397.703 197.85 401.79 218.43 403.785 232.923C405.964 248.743 407.852 254.547 407.868 254.603Z" fill="white"/>
<path d="M395.024 108.607C399.993 110.377 408.41 113.636 411.365 115.866C414.32 118.097 428.304 135.924 428.304 135.924C428.304 135.924 422.141 148.955 408.092 153.928C408.092 153.928 402.17 168.299 407.668 195.232C407.668 195.232 403.83 191.054 375.183 197.814C355.529 202.452 350.884 193.544 351.004 192.164C351.124 190.784 358.413 171.246 353.067 153.757C353.067 153.757 338.536 149.641 333.489 140.726C333.489 140.726 342.165 122.357 346.447 118.852C350.729 115.347 362.296 112.036 366.314 110.778C370.333 109.52 395.024 108.607 395.024 108.607Z" fill="#3A193F"/>
<path d="M407.268 193.682C408.19 197.88 424.492 194.904 418.676 177.54C412.861 160.176 408.04 154.185 408.04 154.185C408.04 154.185 402.818 173.398 407.268 193.682Z" fill="#F1B104"/>
<path d="M404.807 111.8C401.868 118.744 395.685 138.03 407.505 169.443L405.65 178.558C405.65 178.558 387.365 151.553 398.267 110.135C398.845 107.924 404.807 111.8 404.807 111.8Z" fill="#F1B104"/>
<path d="M366.321 110.949C356.087 128.382 359.224 167.091 354.871 173.398C354.871 173.398 348.383 130.665 357.553 114.116C359.308 110.946 367.505 108.959 366.321 110.949Z" fill="#F1B104"/>
<path d="M395.682 108.972C395.682 108.972 380.67 117.841 367.787 110.414C367.787 110.414 374.923 106.377 375.873 99.0878C375.883 99.047 375.889 99.0051 375.889 98.963L375.918 98.7002C375.922 98.6741 375.922 98.6476 375.918 98.6214C375.918 98.421 375.951 98.2206 375.957 98.017C375.957 97.7608 375.957 97.498 375.957 97.2319L389.188 94.1343C389.188 94.1343 389.188 95.0737 389.302 96.4895C389.671 100.037 390.92 106.6 395.682 108.972Z" fill="#B57E6F"/>
<path d="M389.513 98.513C386.214 106.308 377.605 105.483 374.147 104.163C375.055 102.605 375.646 100.88 375.886 99.0878C375.896 99.047 375.902 99.0051 375.902 98.963C375.902 98.8776 375.925 98.7889 375.931 98.7002C375.935 98.674 375.935 98.6476 375.931 98.6214C375.931 98.421 375.964 98.2206 375.97 98.017C375.97 97.7575 375.97 97.4947 375.97 97.2319L389.201 94.1343C389.201 94.1343 389.383 97.0939 389.513 98.513Z" fill="#3A193F"/>
<path d="M390.534 94.4428C390.289 95.4972 389.838 96.4912 389.208 97.3663C388.491 98.3518 388.212 98.9332 387.586 99.3373C385.964 100.415 377.446 103.279 374.112 98.5029C372.545 96.2528 371.637 87.6399 372.386 80.8106C373.191 73.5183 388.076 76.6816 390.525 82.9852C392.062 86.9402 391.147 91.7459 390.534 94.4428Z" fill="#B57E6F"/>
<path d="M382.192 80.4429C381.605 80.5217 371.978 82.7686 368.893 78.9515C365.808 75.1345 370.411 71.5639 374.971 72.0106C374.971 72.0106 375.296 68.2856 380.852 67.1852C386.408 66.0848 388.906 68.348 388.929 70.47C388.929 70.47 392.931 68.8769 395.919 71.3208C398.906 73.7648 397.758 75.6141 397.631 78.0909C397.505 80.5677 399.383 79.914 399.37 82.5025C399.37 85.2618 396.425 85.265 394.05 90.7146C393.139 92.8038 391.533 93.7038 391.472 92.748C391.41 91.7921 391.342 91.6672 390.943 91.1252C389.512 88.8524 388.711 86.2315 388.624 83.5372C388.488 79.4541 387.362 79.7629 382.192 80.4429Z" fill="#3A193F"/>
<path d="M387.443 79.6875C384.955 79.8649 377.611 84.2337 370.073 81.2314" stroke="#3A193F" stroke-width="3" stroke-linecap="round" stroke-linejoin="round"/>
<path d="M391.206 93.615C393.264 93.615 394.933 91.9252 394.933 89.8407C394.933 87.7562 393.264 86.0664 391.206 86.0664C389.148 86.0664 387.479 87.7562 387.479 89.8407C387.479 91.9252 389.148 93.615 391.206 93.615Z" fill="#B57E6F"/>
<path d="M400.129 154.94C400.129 154.94 410.418 176.62 425.614 180.733C430.694 182.109 435.627 177.937 436.114 169.137C436.6 160.337 424.807 141.4 424.807 141.4C415.786 151.911 408.092 153.928 408.092 153.928L403.937 151.76L400.129 154.94Z" fill="#B57E6F"/>
<path d="M398.754 154.332C397.362 153.528 393.275 148.857 392.626 147.106C391.978 145.355 392.763 140.536 392.951 140.109C393.139 139.682 394.345 137.077 394.345 137.077C394.73 137.459 395.008 137.938 395.151 138.464C395.294 138.99 395.297 139.545 395.16 140.073C394.889 141.13 394.892 142.24 395.168 143.295C395.445 144.351 395.986 145.316 396.739 146.097C397.2 146.567 399.519 146.804 400.025 146.097C400.531 145.391 399.337 143.519 399.198 142.783C398.987 141.66 399.915 140.897 399.915 140.897L402.977 144.478C403.47 145.053 404.076 149.881 404.054 153.074C404.031 156.267 401.715 156.031 398.754 154.332Z" fill="#B57E6F"/>
<path d="M427.142 145.371C427.022 145.529 419.452 155.226 412.085 156.021L408.096 153.925C408.096 153.925 415.79 151.902 424.81 141.4V141.423V141.446L427.061 145.276L427.142 145.371Z" fill="#3A193F"/>
<path d="M411.904 155.472C411.904 155.472 421.291 159.437 425.203 163.155" stroke="#9E2923" stroke-width="2" stroke-linecap="round" stroke-linejoin="round"/>
<path d="M380.751 83.8558C380.751 83.8558 382.14 83.0675 384.141 84.3683" stroke="#3A193F" stroke-width="3" stroke-linecap="round" stroke-linejoin="round"/>
<path d="M382.636 86.9887C382.661 86.4414 382.342 85.9824 381.925 85.9634C381.508 85.9445 381.151 86.3728 381.126 86.9201C381.102 87.4674 381.421 87.9265 381.838 87.9455C382.255 87.9644 382.612 87.5361 382.636 86.9887Z" fill="#3A193F"/>
<path d="M375.763 86.9882C375.788 86.4409 375.469 85.9818 375.052 85.9629C374.635 85.9439 374.278 86.3723 374.253 86.9196C374.229 87.4669 374.548 87.926 374.964 87.945C375.381 87.9639 375.739 87.5356 375.763 86.9882Z" fill="#3A193F"/>
<path d="M378.02 87.0127L377.745 92.0254L379.422 92.6397" stroke="#3A193F" stroke-width="3" stroke-linecap="round" stroke-linejoin="round"/>
<path d="M382.101 93.6382C382.101 93.6382 381.147 95.6452 379.421 95.4251" stroke="#3A193F" stroke-width="3" stroke-linecap="round" stroke-linejoin="round"/>
<path d="M254.477 195.348C254.477 195.348 255.865 194.559 257.866 195.86" stroke="#3A193F" stroke-width="3" stroke-linecap="round" stroke-linejoin="round"/>
<path d="M245.154 195.406C245.154 195.406 246.367 194.365 248.576 195.249" stroke="#3A193F" stroke-width="3" stroke-linecap="round" stroke-linejoin="round"/>
<path d="M256.359 198.761C256.383 198.214 256.065 197.755 255.648 197.736C255.231 197.717 254.873 198.145 254.849 198.693C254.825 199.24 255.143 199.699 255.56 199.718C255.977 199.737 256.335 199.309 256.359 198.761Z" fill="#3A193F"/>
<path d="M247.564 198.205C247.588 197.658 247.27 197.199 246.853 197.18C246.436 197.161 246.078 197.589 246.054 198.136C246.029 198.684 246.348 199.143 246.765 199.162C247.182 199.181 247.539 198.752 247.564 198.205Z" fill="#3A193F"/>
<path d="M250.374 201.69C250.236 201.71 250.095 201.7 249.961 201.66C249.828 201.62 249.704 201.551 249.599 201.459C249.493 201.366 249.409 201.252 249.351 201.124C249.293 200.995 249.263 200.856 249.263 200.714C249.263 200.573 249.293 200.434 249.351 200.305C249.409 200.177 249.493 200.063 249.599 199.97C249.704 199.878 249.828 199.809 249.961 199.769C250.095 199.729 250.236 199.719 250.374 199.739" stroke="#3A193F" stroke-width="3" stroke-linecap="round" stroke-linejoin="round"/>
<path d="M250.237 205.027C250.237 205.027 252.719 205.533 254.778 204.042" stroke="#3A193F" stroke-width="3" stroke-linecap="round" stroke-linejoin="round"/>
</svg>
