<svg width="406" height="350" viewBox="0 0 406 350" fill="none" xmlns="http://www.w3.org/2000/svg">
<path d="M228.151 240.937V242.195C228.151 242.636 228.055 243.073 227.87 243.481C227.685 243.889 227.414 244.259 227.072 244.571C226.73 244.883 226.324 245.13 225.877 245.299C225.43 245.468 224.951 245.554 224.468 245.554H124.368C119.11 245.554 114.009 243.919 109.907 240.917C105.804 237.915 102.944 233.727 101.799 229.042L83.886 155.988C83.4604 154.251 83.4679 152.449 83.9078 150.715C84.3478 148.981 85.209 147.36 86.4278 145.97C87.6466 144.581 89.1918 143.46 90.9492 142.689C92.7067 141.918 94.6313 141.518 96.5809 141.518H131.288C135.241 141.516 139.076 142.745 142.161 145.001C145.247 147.257 147.398 150.406 148.259 153.928L164.63 220.71C165.803 225.496 168.728 229.774 172.921 232.84C177.114 235.905 182.326 237.576 187.698 237.575H224.468C225.444 237.575 226.381 237.929 227.072 238.56C227.762 239.19 228.151 240.045 228.151 240.937V240.937Z" fill="#D6EAF2"/>
<path d="M120.485 245.94H163.702C168.06 245.945 172.237 247.53 175.316 250.346C178.394 253.162 180.12 256.979 180.116 260.958V312.242C180.119 314.212 179.696 316.164 178.873 317.985C178.049 319.806 176.841 321.461 175.316 322.855C173.792 324.25 171.982 325.357 169.989 326.112C167.996 326.868 165.86 327.258 163.702 327.26H112.398" stroke="#639AD6" stroke-width="3" stroke-miterlimit="10"/>
<path d="M142.389 245.94H199.986C204.342 245.948 208.515 247.534 211.59 250.35C214.665 253.166 216.389 256.982 216.384 260.958V312.242C216.39 316.219 214.666 320.035 211.591 322.851C208.516 325.667 204.342 327.253 199.986 327.26H158.822" stroke="#639AD6" stroke-width="3" stroke-miterlimit="10"/>
<path d="M180.116 298.566H216.397" stroke="#639AD6" stroke-width="3" stroke-miterlimit="10"/>
<path d="M188.977 117.015C188.977 117.015 205.732 118.036 213.901 132.036C222.07 146.036 232.266 165.138 232.266 165.138C232.266 165.138 261.047 164.401 282.341 176.536V185.261H221.129C213.524 185.261 188.99 158.752 187.557 141.578C186.124 124.404 188.977 117.015 188.977 117.015Z" fill="#F9C543"/>
<path d="M277.559 185.186C276.329 184.952 277.231 181.35 277.949 179.129C278.349 177.904 279.31 177.281 280.573 176.751C283.111 175.697 287.499 174.506 289.978 175.015C293.612 175.763 295.947 177.859 298.22 180.344C298.876 181.057 302.067 184.473 302.067 185.386L277.559 185.186Z" fill="#A57574"/>
<path d="M157.415 111.267C146.773 111.3 124.716 131.566 128.598 183.09C131.461 221.027 144.409 236.982 147.272 235.866C150.135 234.749 184.691 207.102 189.394 192.168C194.096 177.234 219.079 125.967 186.173 116.12C163.21 109.252 160.819 111.258 157.415 111.267Z" fill="#F9C543"/>
<path d="M264.917 327.506H227.43C227.39 326.982 227.377 326.485 227.387 326.009H264.96C265.002 326.508 264.988 327.01 264.917 327.506Z" fill="white"/>
<path d="M231.247 312.192C231.381 315.925 227.43 318.291 227.43 326.006H264.917C264.917 326.006 265.462 319.533 257.965 318.042C250.468 316.551 243.65 314.557 242.968 312.192H231.247Z" fill="#A1CBE2"/>
<path d="M243.233 319.168L246.654 314.542" stroke="white" stroke-width="3" stroke-miterlimit="10" stroke-linecap="round"/>
<path d="M245.903 319.728L249.12 315.479" stroke="white" stroke-width="3" stroke-miterlimit="10" stroke-linecap="round"/>
<path d="M249.396 319.916L251.996 316.042" stroke="white" stroke-width="3" stroke-miterlimit="10" stroke-linecap="round"/>
<path d="M190.932 194.938C190.932 194.938 248.149 191.671 262.054 206.614C275.959 221.557 248.966 274.812 246.241 307.168C246.241 307.168 232.549 308.414 226.99 307.168C221.431 305.922 216.591 250.605 230.597 235.42C230.597 235.42 177.345 246.602 156.586 232.497C135.827 218.393 182.294 195.21 190.932 194.938Z" fill="#242854"/>
<path d="M227.122 313.383C229.089 313.913 234.956 315.35 246.562 313.665C247.162 313.578 247.605 312.731 247.605 312.168V308.057C247.605 307.896 247.567 307.737 247.494 307.59C247.42 307.444 247.313 307.313 247.18 307.208C247.046 307.103 246.89 307.025 246.72 306.98C246.551 306.934 246.373 306.923 246.198 306.946C236.157 308.276 229.561 307.545 226.803 306.982C226.612 306.944 226.413 306.948 226.223 306.994C226.033 307.04 225.858 307.127 225.712 307.247C225.567 307.366 225.454 307.516 225.384 307.684C225.315 307.851 225.29 308.032 225.311 308.21L226.249 312.422C226.275 312.643 226.372 312.852 226.527 313.023C226.682 313.193 226.889 313.319 227.122 313.383V313.383Z" fill="#4E577D"/>
<path d="M349.633 275.692L319.894 296.527C319.474 296.06 319.094 295.599 318.753 295.153L348.373 274.396C348.846 274.783 349.268 275.218 349.633 275.692V275.692Z" fill="white"/>
<path d="M312.479 282.135C315.077 285.03 313.519 289.096 318.661 295.21L348.4 274.371C348.4 274.371 344.517 268.937 337.577 271.919C330.638 274.901 323.899 277.111 321.78 275.614L312.479 282.135Z" fill="#A1CBE2"/>
<path d="M326.716 280.677L326.349 275.285" stroke="white" stroke-width="3" stroke-miterlimit="10" stroke-linecap="round"/>
<path d="M328.975 279.362L328.608 274.536" stroke="white" stroke-width="3" stroke-miterlimit="10" stroke-linecap="round"/>
<path d="M331.235 278.051L330.868 273.785" stroke="white" stroke-width="3" stroke-miterlimit="10" stroke-linecap="round"/>
<path d="M147.069 233.991C147.925 238.204 196.622 248.42 248.421 218.551C248.421 218.551 252.986 253.087 305.33 279.222C305.33 279.222 316.857 274.731 319.989 268.701C319.989 268.701 286.539 232.24 273.388 198.761C267.869 184.704 198.409 192.063 188.243 194.938C178.076 197.812 143.251 215.207 147.069 233.991Z" fill="#242854"/>
<path d="M151.185 236.351C148.66 235.537 147.226 234.68 147.085 233.989C143.658 217.132 171.377 201.39 184.432 196.264C171.518 203.126 149.479 220.785 151.185 236.351Z" fill="#383C4D"/>
<path d="M309.125 284.329C311.043 283.653 316.402 281.237 324.486 273.449C324.688 273.255 324.807 273 324.822 272.733C324.837 272.465 324.747 272.201 324.568 271.988L321.826 268.728C321.719 268.6 321.583 268.495 321.427 268.419C321.271 268.343 321.099 268.299 320.923 268.29C320.747 268.28 320.571 268.305 320.407 268.363C320.242 268.421 320.093 268.511 319.97 268.626C312.889 275.264 307.488 278.111 304.933 279.21C304.757 279.286 304.602 279.399 304.483 279.541C304.364 279.682 304.283 279.847 304.248 280.023C304.212 280.198 304.223 280.379 304.279 280.55C304.335 280.721 304.434 280.877 304.569 281.006L307.8 284.057C307.967 284.216 308.182 284.327 308.417 284.375C308.653 284.424 308.899 284.408 309.125 284.329Z" fill="#6874A7"/>
<path d="M160.272 122.416C171.337 125.77 184.897 161.18 184.897 161.18C184.897 161.18 204.338 164.542 230.718 174.623C230.718 174.623 232.132 180.967 228.655 185.261C228.655 185.261 176.308 185.635 171.199 185.261C166.089 184.886 142.064 166.839 136.135 146.874C130.205 126.91 146.757 118.318 160.272 122.416Z" fill="#F9C543"/>
<path d="M234.995 158.901L246.102 184.012H248.011L236.592 158.311C236.51 158.126 236.353 157.977 236.155 157.893C235.956 157.809 235.73 157.797 235.523 157.859V157.859C235.411 157.894 235.308 157.948 235.221 158.02C235.133 158.092 235.063 158.179 235.013 158.277C234.964 158.374 234.937 158.48 234.933 158.587C234.93 158.695 234.951 158.801 234.995 158.901V158.901Z" fill="#41465A"/>
<path d="M230.597 176.509C230.597 176.509 238.333 172.776 241.97 173.515C245.607 174.255 249.966 177.246 250.421 178.084C250.877 178.923 254.055 182.98 254.055 183.893C254.055 184.806 243.774 184.474 242.328 184.474C240.881 184.474 231.374 184.611 229.538 184.264C227.701 183.917 230.597 176.509 230.597 176.509Z" fill="#A57574"/>
<path d="M242.328 184.473C243.774 184.473 254.055 184.805 254.055 183.892C254.055 182.979 250.874 178.913 250.421 178.084C249.969 177.255 245.604 174.267 241.97 173.521C241.97 173.521 246.457 179.21 242.328 184.473Z" fill="#A57574"/>
<path d="M228.656 185.261C228.656 185.261 176.308 185.635 171.199 185.261C166.09 184.886 142.064 166.839 136.135 146.875" stroke="#E59E38" stroke-width="3" stroke-miterlimit="10"/>
<path d="M160.272 122.417C171.337 125.77 184.898 161.18 184.898 161.18C184.898 161.18 197.947 163.437 217.171 169.797" stroke="#E59E38" stroke-width="3" stroke-miterlimit="10"/>
<path d="M293.081 185.329V183.832C293.082 183.422 292.99 183.015 292.812 182.638C292.633 182.26 292.371 181.921 292.043 181.64C291.714 181.359 291.326 181.143 290.902 181.005C290.478 180.867 290.027 180.811 289.578 180.838L229.724 184.246C229.421 184.266 229.138 184.39 228.931 184.594C228.724 184.797 228.609 185.064 228.609 185.341L293.081 185.329Z" fill="#A1CBE2"/>
<path d="M163.774 88.4551C163.774 88.4551 162.462 103.566 152.539 113.138C152.539 113.138 163.653 121.183 175.725 115.18L177.036 88.512L163.774 88.4551Z" fill="#A57574"/>
<path d="M192.794 85.168C192.794 85.168 189.843 91.7548 190.905 103.908C191.968 116.06 170.825 109.725 170.467 101.324C170.11 92.9225 171.543 85.2698 173.934 85.156C176.325 85.0423 192.794 85.168 192.794 85.168Z" fill="#A57574"/>
<path d="M160.577 98.3206C160.577 98.3206 163.768 91.4104 161.524 83.7098C159.885 78.0811 166.522 74.8087 172.14 77.8117C172.14 77.8117 193.296 67.1709 198.068 78.7967C203.82 92.8086 175.964 85.7188 175.485 86.2667C175.006 86.8146 173.416 97.7188 176.403 101.428C179.391 105.138 182.697 101.407 186.996 101.153C191.45 100.886 190.905 103.578 190.905 103.578C190.905 103.578 192.237 110.114 192.716 112.623C193.194 115.132 176.157 119.369 171.661 112.997C167.582 107.219 170.186 95.5332 168.516 94.5601C165.053 92.5452 162.246 96.108 164.168 97.5272C164.168 97.5272 162.059 98.6919 160.577 98.3206Z" fill="#242854"/>
<path d="M196.726 87.4884C190.167 90.71 176.525 86.668 175.305 85.9375Z" fill="#242854"/>
<path d="M166.201 75.3955C168.496 75.2308 170.989 76.0542 172.14 78.0003Z" fill="#4E2556"/>
<path d="M182.599 95.7131C183.149 95.7131 183.596 95.2024 183.596 94.5724C183.596 93.9424 183.149 93.4316 182.599 93.4316C182.048 93.4316 181.602 93.9424 181.602 94.5724C181.602 95.2024 182.048 95.7131 182.599 95.7131Z" fill="#242854"/>
<path d="M189.689 95.7131C190.107 95.7131 190.446 95.2024 190.446 94.5724C190.446 93.9424 190.107 93.4316 189.689 93.4316C189.27 93.4316 188.931 93.9424 188.931 94.5724C188.931 95.2024 189.27 95.7131 189.689 95.7131Z" fill="#242854"/>
<path d="M182.189 98.2219C184.328 98.2219 186.062 96.5155 186.062 94.4105C186.062 92.3055 184.328 90.5991 182.189 90.5991C180.049 90.5991 178.315 92.3055 178.315 94.4105C178.315 96.5155 180.049 98.2219 182.189 98.2219Z" stroke="white" stroke-width="3" stroke-miterlimit="10"/>
<path d="M191.2 98.2219C193.006 98.2219 194.47 96.5155 194.47 94.4105C194.47 92.3055 193.006 90.5991 191.2 90.5991C189.395 90.5991 187.931 92.3055 187.931 94.4105C187.931 96.5155 189.395 98.2219 191.2 98.2219Z" stroke="white" stroke-width="3" stroke-miterlimit="10"/>
<path d="M186.062 94.2456H187.928" stroke="white" stroke-width="3" stroke-miterlimit="10"/>
<path d="M178.112 94.0572L167.05 93.9165C166.347 93.9174 165.651 94.0508 165.007 94.3084C164.362 94.566 163.783 94.9422 163.305 95.4135" stroke="white" stroke-width="3" stroke-miterlimit="10"/>
<path d="M378.98 185.533V327.512H368.519V194.91H30.8107V327.512H20.3491V185.533H378.98Z" fill="#FFF4DE"/>
<path d="M367.066 163.623H256.665C255.853 163.622 255.051 163.451 254.322 163.122C253.594 162.793 252.958 162.315 252.464 161.726C251.971 161.136 251.633 160.451 251.476 159.723C251.32 158.994 251.349 158.243 251.563 157.527L269.878 95.9401C270.862 92.6856 274.08 90.0479 277.772 90.0479H388.173C391.659 90.0479 394.191 93.452 393.276 96.5239L374.96 158.111C374.489 159.693 373.462 161.091 372.035 162.087C370.608 163.083 368.862 163.623 367.066 163.623V163.623Z" fill="white"/>
<path d="M367.069 163.623H259.83C259.04 163.622 258.26 163.455 257.552 163.134C256.844 162.814 256.226 162.349 255.746 161.775C255.267 161.202 254.938 160.535 254.787 159.827C254.635 159.118 254.664 158.388 254.871 157.692L272.65 97.7544C273.106 96.2158 274.104 94.8571 275.491 93.888C276.877 92.9188 278.574 92.3932 280.32 92.3921H387.559C388.35 92.3931 389.129 92.5603 389.838 92.8807C390.546 93.2011 391.164 93.666 391.644 94.2395C392.124 94.8131 392.452 95.4797 392.604 96.1879C392.757 96.8961 392.728 97.6267 392.521 98.3232L374.727 158.26C374.271 159.797 373.274 161.154 371.891 162.123C370.507 163.092 368.813 163.619 367.069 163.623V163.623Z" fill="#D4D1F4"/>
<path d="M367.069 163.623H259.83C259.04 163.622 258.26 163.455 257.552 163.134C256.844 162.814 256.226 162.349 255.746 161.775C255.267 161.202 254.938 160.535 254.787 159.827C254.635 159.118 254.664 158.388 254.871 157.692L272.65 97.7544C273.106 96.2158 274.104 94.8571 275.491 93.888C276.877 92.9188 278.574 92.3932 280.32 92.3921H387.559C388.35 92.3931 389.129 92.5603 389.838 92.8807C390.546 93.2011 391.164 93.666 391.644 94.2395C392.124 94.8131 392.452 95.4797 392.604 96.1879C392.757 96.8961 392.728 97.6267 392.521 98.3232L374.727 158.26C374.271 159.797 373.274 161.154 371.891 162.123C370.507 163.092 368.813 163.619 367.069 163.623V163.623Z" fill="#EBF4F7"/>
<path d="M267.957 113.566L272.649 97.7544C273.106 96.2158 274.104 94.8571 275.491 93.888C276.877 92.9188 278.574 92.3932 280.32 92.3921H344.578" stroke="#639AD6" stroke-width="3" stroke-linecap="round" stroke-linejoin="round"/>
<path d="M374.74 158.26C374.283 159.799 373.285 161.158 371.899 162.127C370.512 163.096 368.815 163.622 367.069 163.623H259.83C259.04 163.622 258.26 163.455 257.552 163.134C256.844 162.814 256.226 162.349 255.746 161.775C255.267 161.202 254.938 160.535 254.787 159.827C254.635 159.118 254.664 158.388 254.871 157.692L264.251 126.096" stroke="#639AD6" stroke-width="3" stroke-linecap="round" stroke-linejoin="round"/>
<path d="M342.87 180.09L332.211 146.299H307.258L317.188 177.763C317.998 180.326 315.643 182.826 312.423 182.826H305.536C305.327 182.816 305.121 182.883 304.965 183.011C304.809 183.139 304.715 183.318 304.703 183.509V184.823C304.715 185.014 304.809 185.194 304.965 185.321C305.121 185.449 305.327 185.516 305.536 185.506H337.911C341.266 185.506 343.709 182.748 342.87 180.09Z" fill="#D6EAF2"/>
<path d="M314.417 184.323H304.716V183.509C304.728 183.318 304.822 183.139 304.979 183.011C305.135 182.883 305.34 182.816 305.549 182.826H312.42C315.644 182.826 317.995 180.326 317.188 177.763L307.258 146.299H309.042L319.176 178.677C319.37 179.342 319.394 180.039 319.245 180.715C319.097 181.39 318.781 182.025 318.321 182.571C317.861 183.117 317.27 183.558 316.593 183.862C315.916 184.166 315.171 184.324 314.417 184.323Z" fill="white"/>
<path d="M307.258 146.299V163.656H312.735L307.258 146.299Z" fill="#A1CBE2"/>
<path d="M275.184 157.527H269.704L269.285 158.916H274.765L275.184 157.527Z" fill="#A1CBE2"/>
<path d="M286.512 157.527H281.452L281.035 158.916H286.092L286.512 157.527Z" fill="#A1CBE2"/>
<path d="M338.134 185.03C341.476 185.03 343.919 182.764 343.08 180.105L332.412 146.314" stroke="#639AD6" stroke-width="3" stroke-miterlimit="10"/>
<path d="M283.773 158.222H286.45C286.894 158.222 287.32 158.383 287.634 158.67C287.949 158.957 288.125 159.346 288.125 159.752V205.82C288.125 206.922 288.605 207.978 289.458 208.757C290.311 209.536 291.468 209.973 292.674 209.973C293.88 209.972 295.036 209.534 295.888 208.756C296.741 207.977 297.219 206.921 297.219 205.82V185.231C297.219 185.03 297.176 184.831 297.092 184.646C297.007 184.46 296.884 184.292 296.728 184.15C296.573 184.008 296.388 183.896 296.185 183.819C295.981 183.743 295.763 183.703 295.544 183.704H293.081" stroke="#639AD6" stroke-width="3" stroke-miterlimit="10"/>
<path d="M72.3226 167.512H58.7783C57.1501 167.512 55.8301 168.717 55.8301 170.204V182.569C55.8301 184.056 57.1501 185.261 58.7783 185.261H72.3226C73.9509 185.261 75.2709 184.056 75.2709 182.569V170.204C75.2709 168.717 73.9509 167.512 72.3226 167.512Z" fill="#F9C543"/>
<path d="M64.5568 167.512C64.5568 167.512 62.1431 151.081 79.7769 146.422C79.7769 146.422 72.1652 153.27 69.8466 167.512H64.5568Z" fill="#A1CBE2"/>
<path d="M67.6492 167.512C67.6492 167.512 65.5504 153.114 51.4683 152.15C51.4683 152.15 60.3229 155.536 60.4245 167.512H67.6492Z" fill="#A1CBE2"/>
<path d="M62.884 167.512C62.884 167.512 61.0639 155.803 67.1473 150.234C67.1473 150.234 65.6322 160.303 67.6425 167.512H62.884Z" fill="#D6EAF2"/>
<path d="M65.5503 167.512C65.5503 167.512 71.5157 164.47 71.1254 158.875C71.1254 158.875 74.4836 163.857 71.8141 167.512H65.5503Z" fill="#D6EAF2"/>
<path d="M59.2864 167.512C59.2864 167.512 57.5942 163.114 53.4194 161.758C53.4194 161.758 61.0278 161.575 62.884 167.512H59.2864Z" fill="#D6EAF2"/>
<path d="M187.652 94.9282L190.344 99.7186L188.062 101.072" fill="#A57574"/>
<path d="M187.652 94.9282L190.344 99.7186L188.062 101.072" stroke="#4E2556" stroke-width="3" stroke-linecap="round" stroke-linejoin="round"/>
<path d="M28.748 83.4819H138.066V92.6197L28.7284 84.1855C28.4365 84.1586 28.4562 83.4819 28.748 83.4819Z" fill="#FFF4DE"/>
<path d="M126.277 38.2876H121.679C120.746 38.2876 119.99 38.9779 119.99 39.8295V74.2158C119.99 75.0673 120.746 75.7577 121.679 75.7577H126.277C127.209 75.7577 127.965 75.0673 127.965 74.2158V39.8295C127.965 38.9779 127.209 38.2876 126.277 38.2876Z" fill="white" stroke="#F1B104" stroke-width="3" stroke-miterlimit="10"/>
<path d="M117.848 41.4585H112.359C111.448 41.4585 110.709 42.1327 110.709 42.9645V74.9944C110.709 75.8262 111.448 76.5004 112.359 76.5004H117.848C118.759 76.5004 119.498 75.8262 119.498 74.9944V42.9645C119.498 42.1327 118.759 41.4585 117.848 41.4585Z" fill="#F1B104"/>
<path d="M109.171 32.9492H107.688C106.839 32.9492 106.15 33.5779 106.15 34.3534V75.0959C106.15 75.8714 106.839 76.5001 107.688 76.5001H109.171C110.02 76.5001 110.709 75.8714 110.709 75.0959V34.3534C110.709 33.5779 110.02 32.9492 109.171 32.9492Z" fill="#D6EAF2"/>
<path d="M104.137 43.9941H100.188C99.2571 43.9941 98.5024 44.6831 98.5024 45.5331V74.5151C98.5024 75.365 99.2571 76.054 100.188 76.054H104.137C105.068 76.054 105.822 75.365 105.822 74.5151V45.5331C105.822 44.6831 105.068 43.9941 104.137 43.9941Z" fill="white" stroke="#F1B104" stroke-width="3" stroke-miterlimit="10"/>
<path d="M84.8894 76.5H78.501L94.4819 37.4072C94.5437 37.2554 94.6546 37.1242 94.7998 37.0312C94.945 36.9382 95.1178 36.8876 95.2952 36.8862H99.8275C99.9693 36.8885 100.108 36.9218 100.233 36.9834C100.358 37.045 100.465 37.1331 100.544 37.2402C100.624 37.3473 100.674 37.4703 100.691 37.5989C100.708 37.7275 100.691 37.8578 100.641 37.979L84.8894 76.5Z" fill="#F1B104"/>
<path d="M137.751 76.5H28.9873V83.0509H137.751V76.5Z" fill="white" stroke="#F1B104" stroke-width="3" stroke-miterlimit="10"/>
<path d="M39.9803 61.9761H67.4329V64.7276C67.4329 67.8506 66.074 70.8457 63.6551 73.0541C61.2362 75.2624 57.9555 76.503 54.5347 76.503H52.8753C49.4544 76.503 46.1737 75.2624 43.7548 73.0541C41.336 70.8457 39.9771 67.8506 39.9771 64.7276V61.9761H39.9803Z" fill="#F1B104"/>
<path d="M64.6781 61.9762H44.3453C44.3453 61.9762 38.3996 66.4044 35.0021 62.7726C32.5425 60.1439 44.3125 60.0241 44.3125 60.0241L44.6667 59.9133C44.6667 59.9133 39.6163 50.2367 44.388 48.6229C47.6838 47.5032 48.4808 55.7038 48.6513 58.3654C50.3861 57.7038 53.7738 56.7487 54.0624 59.2636C54.0624 59.2636 54.4396 48.9074 59.1915 49.8954C63.1269 50.7187 57.2829 60.4523 57.2829 60.4523L57.6961 60.6798C57.6961 60.6798 68.5512 53.4403 71.2141 55.1229C73.2277 56.3954 64.6781 61.9762 64.6781 61.9762Z" fill="#A1CBE2"/>
<path d="M47.4575 61.9762C47.4575 61.9762 47.6674 53.048 51.3503 53.2935C55.0331 53.5391 49.9007 61.9762 49.9007 61.9762H47.4575Z" fill="#D6EAF2"/>
<path d="M47.4575 61.9762C47.4575 61.9762 43.7648 53.5511 38.7603 55.7098C33.8706 57.8056 44.3879 61.9762 44.3879 61.9762H47.4575Z" fill="#D6EAF2"/>
<path d="M55.0498 61.9762C55.0498 61.9762 58.3752 54.3864 63.6224 55.1079C68.8695 55.8295 57.129 61.9762 57.129 61.9762H55.0498Z" fill="#D6EAF2"/>
<path d="M60.4541 61.9762C60.4541 61.9762 70.7386 57.2486 72.5882 60.0989C74.4378 62.9492 60.4541 61.9762 60.4541 61.9762Z" fill="#D6EAF2"/>
</svg>
